<?xml version="1.0" encoding="UTF-8" standalone="no"?>
<!-- Created with Inkscape (http://www.inkscape.org/) -->

<svg
   xmlns:dc="http://purl.org/dc/elements/1.1/"
   xmlns:cc="http://creativecommons.org/ns#"
   xmlns:rdf="http://www.w3.org/1999/02/22-rdf-syntax-ns#"
   xmlns:svg="http://www.w3.org/2000/svg"
   xmlns="http://www.w3.org/2000/svg"
   xmlns:sodipodi="http://sodipodi.sourceforge.net/DTD/sodipodi-0.dtd"
   xmlns:inkscape="http://www.inkscape.org/namespaces/inkscape"
   width="210mm"
   height="297mm"
   viewBox="0 0 210 297"
   version="1.1"
   id="svg5479"
   inkscape:version="0.92.3 (2405546, 2018-03-11)"
   sodipodi:docname="card_civilimg.svg">
  <defs
     id="defs5473" />
  <sodipodi:namedview
     id="base"
     pagecolor="#ffffff"
     bordercolor="#666666"
     borderopacity="1.0"
     inkscape:pageopacity="0.0"
     inkscape:pageshadow="2"
     inkscape:zoom="0.35"
     inkscape:cx="400"
     inkscape:cy="560"
     inkscape:document-units="mm"
     inkscape:current-layer="layer1"
     showgrid="false"
     inkscape:window-width="1920"
     inkscape:window-height="1016"
     inkscape:window-x="0"
     inkscape:window-y="27"
     inkscape:window-maximized="1" />
  <metadata
     id="metadata5476">
    <rdf:RDF>
      <cc:Work
         rdf:about="">
        <dc:format>image/svg+xml</dc:format>
        <dc:type
           rdf:resource="http://purl.org/dc/dcmitype/StillImage" />
        <dc:title></dc:title>
      </cc:Work>
    </rdf:RDF>
  </metadata>
  <g
     inkscape:label="Layer 1"
     inkscape:groupmode="layer"
     id="layer1">
    <g
       transform="matrix(1.5829767,0,0,-1.5829767,-290.42289,756.17031)"
       id="g5354">
      <g
         transform="translate(266.4746,429.7031)"
         id="g4009">
        <path
           inkscape:connector-curvature="0"
           id="path4011"
           style="fill:#e8c052;fill-opacity:1;fill-rule:nonzero;stroke:none"
           d="m 0,0 c -0.217,-1.343 -1.037,-1.457 -1.037,-1.457 -1.356,3.362 -4.372,2.832 -4.372,2.832 2.79,-1.946 1.884,-5.574 1.884,-5.574 -4.899,2.919 -9.91,2.565 -9.91,2.565 0.741,3.096 3.428,3.717 3.428,3.717 -2.36,2.212 -4.823,0.796 -4.823,0.796 0,0 1.457,1.563 1.054,3.392 -0.455,2.072 -2.46,2.212 -3.089,4.927 -0.628,-2.715 -2.635,-2.855 -3.089,-4.927 -0.403,-1.829 1.054,-3.392 1.054,-3.392 0,0 -2.462,1.416 -4.824,-0.796 0,0 2.688,-0.621 3.43,-3.717 0,0 -5.012,0.354 -9.912,-2.565 0,0 -0.904,3.628 1.885,5.574 0,0 -3.015,0.53 -4.372,-2.832 0,0 -0.82,0.114 -1.037,1.457 -0.496,3.055 -3.26,1.256 -5.596,2.879 l 7.236,-10.708 h 15.225 15.226 L 5.595,2.879 C 3.26,1.256 0.497,3.055 0,0" />
      </g>
      <g
         transform="translate(307.1943,394.7935)"
         id="g4013">
        <path
           inkscape:connector-curvature="0"
           id="path4015"
           style="fill:#e8c052;fill-opacity:1;fill-rule:nonzero;stroke:none"
           d="m 0,0 c -0.984,-4.283 -2.47,-8.558 -3.136,-12.847 -0.343,-2.213 -0.418,-4.528 -0.057,-6.774 1.444,5.029 2.395,10.138 2.919,15.342 -0.464,-5.235 -1.351,-10.383 -2.733,-15.455 1.488,1.328 2.346,3.191 2.837,5.044 C 1.044,-10.114 0.52,-4.756 0,0" />
      </g>
      <g
         transform="translate(311.9785,377.002)"
         id="g4017">
        <path
           inkscape:connector-curvature="0"
           id="path4019"
           style="fill:#e8c052;fill-opacity:1;fill-rule:nonzero;stroke:none"
           d="m 0,0 c -2.132,0.114 -4.801,-0.207 -6.429,-1.664 -1.086,-0.973 -1.743,-2.449 -2.194,-3.835 2.265,1.466 4.481,3.001 6.781,4.409 -2.278,-1.507 -4.477,-3.124 -6.728,-4.672 0.936,-0.607 2.145,-0.727 3.143,-0.217 C -3.149,-4.811 -1.389,-2.106 0,0" />
      </g>
      <g
         transform="translate(310.1113,369.7124)"
         id="g4021">
        <path
           inkscape:connector-curvature="0"
           id="path4023"
           style="fill:#e8c052;fill-opacity:1;fill-rule:nonzero;stroke:none"
           d="m 0,0 c -2.249,0.113 -5.023,-0.131 -6.867,-1.483 -1.179,-0.866 -2.003,-2.24 -2.592,-3.578 2.501,1.302 4.95,2.701 7.445,4.015 -2.48,-1.407 -4.915,-2.89 -7.413,-4.27 0.963,-0.644 2.209,-0.796 3.277,-0.35 C -3.689,-4.638 -1.639,-2.053 0,0" />
      </g>
      <g
         transform="translate(307.561,362.6738)"
         id="g4025">
        <path
           inkscape:connector-curvature="0"
           id="path4027"
           style="fill:#e8c052;fill-opacity:1;fill-rule:nonzero;stroke:none"
           d="m 0,0 c -2.351,0.161 -5.217,0.053 -7.271,-1.156 -1.267,-0.746 -2.245,-2.003 -2.975,-3.275 2.722,1.088 5.387,2.304 8.072,3.476 -2.674,-1.263 -5.334,-2.558 -8.054,-3.724 1.05,-0.742 2.268,-0.836 3.401,-0.537 C -4.313,-4.553 -1.871,-1.959 0,0" />
      </g>
      <g
         transform="translate(304.3628,355.9687)"
         id="g4029">
        <path
           inkscape:connector-curvature="0"
           id="path4031"
           style="fill:#e8c052;fill-opacity:1;fill-rule:nonzero;stroke:none"
           d="m 0,0 c -2.45,0.247 -5.388,0.315 -7.65,-0.713 -1.347,-0.613 -2.475,-1.737 -3.348,-2.932 2.926,0.84 5.801,1.83 8.68,2.821 -2.875,-1.078 -5.746,-2.145 -8.678,-3.06 1.064,-0.8 2.326,-0.973 3.527,-0.764 C -4.824,-4.188 -2.104,-1.83 0,0" />
      </g>
      <g
         transform="translate(300.5552,349.6753)"
         id="g4033">
        <path
           inkscape:connector-curvature="0"
           id="path4035"
           style="fill:#e8c052;fill-opacity:1;fill-rule:nonzero;stroke:none"
           d="m 0,0 c -2.552,0.369 -5.558,0.642 -8.021,-0.177 -1.422,-0.472 -2.694,-1.449 -3.713,-2.552 3.122,0.564 6.199,1.293 9.275,2.07 -3.074,-0.861 -6.157,-1.666 -9.288,-2.299 1.019,-0.815 2.377,-1.187 3.662,-1.016 C -5.203,-3.59 -2.336,-1.668 0,0" />
      </g>
      <g
         transform="translate(296.1743,343.8726)"
         id="g4037">
        <path
           inkscape:connector-curvature="0"
           id="path4039"
           style="fill:#e8c052;fill-opacity:1;fill-rule:nonzero;stroke:none"
           d="m 0,0 c -2.667,0.52 -5.737,1.012 -8.401,0.426 -1.493,-0.329 -2.906,-1.144 -4.07,-2.139 3.311,0.275 6.595,0.717 9.875,1.245 -3.285,-0.609 -6.577,-1.123 -9.901,-1.465 1.099,-0.921 2.464,-1.287 3.813,-1.277 C -5.792,-3.193 -2.576,-1.472 0,0" />
      </g>
      <g
         transform="translate(291.2563,338.6382)"
         id="g4041">
        <path
           inkscape:connector-curvature="0"
           id="path4043"
           style="fill:#e8c052;fill-opacity:1;fill-rule:nonzero;stroke:none"
           d="m 0,0 c -2.792,0.691 -5.936,1.407 -8.8,1.07 -1.57,-0.184 -3.107,-0.828 -4.429,-1.701 3.507,-0.017 7.001,0.123 10.497,0.377 -3.505,-0.331 -7.012,-0.54 -10.533,-0.583 1.142,-0.98 2.57,-1.433 3.99,-1.537 C -6.267,-2.593 -2.826,-1.244 0,0" />
      </g>
      <g
         transform="translate(285.8369,334.0562)"
         id="g4045">
        <path
           inkscape:connector-curvature="0"
           id="path4047"
           style="fill:#e8c052;fill-opacity:1;fill-rule:nonzero;stroke:none"
           d="m 0,0 c -2.935,0.879 -6.236,1.865 -9.238,1.725 -1.632,-0.075 -3.275,-0.493 -4.785,-1.239 3.713,-0.305 7.428,-0.472 11.151,-0.514 -3.736,-0.032 -7.465,0.072 -11.194,0.322 1.2,-1.027 2.703,-1.565 4.202,-1.776 C -6.716,-1.925 -3.087,-0.979 0,0" />
      </g>
      <g
         transform="translate(279.9575,330.2021)"
         id="g4049">
        <path
           inkscape:connector-curvature="0"
           id="path4051"
           style="fill:#e8c052;fill-opacity:1;fill-rule:nonzero;stroke:none"
           d="m 0,0 c -3.105,1.068 -6.449,2.188 -9.731,2.369 -1.724,0.094 -3.505,-0.19 -5.141,-0.763 3.939,-0.576 7.886,-1.05 11.851,-1.398 -3.981,0.282 -7.946,0.698 -11.902,1.225 1.291,-1.06 2.873,-1.664 4.454,-1.982 C -7.167,-1.212 -3.357,-0.677 0,0" />
      </g>
      <g
         transform="translate(273.6489,327.1572)"
         id="g4053">
        <path
           inkscape:connector-curvature="0"
           id="path4055"
           style="fill:#e8c052;fill-opacity:1;fill-rule:nonzero;stroke:none"
           d="M 0,0 C -3.293,1.252 -6.833,2.596 -10.288,2.972 -12.099,3.17 -13.979,3.098 -15.792,2.702 -11.601,1.87 -7.4,1.104 -3.18,0.444 -7.418,1.043 -11.639,1.761 -15.849,2.549 -14.441,1.479 -12.758,0.822 -11.09,0.41 -7.596,-0.453 -3.631,-0.337 0,0" />
      </g>
      <g
         transform="translate(299.0786,385.2759)"
         id="g4057">
        <path
           inkscape:connector-curvature="0"
           id="path4059"
           style="fill:#e8c052;fill-opacity:1;fill-rule:nonzero;stroke:none"
           d="M 0,0 C 1.707,-2.482 3.603,-5.435 4.052,-8.366 4.297,-9.977 4.147,-11.667 3.59,-13.258 2.858,-9.791 2.008,-6.36 0.962,-2.97 1.951,-6.402 2.747,-9.871 3.41,-13.379 2.247,-12.694 1.597,-11.5 1.208,-10.304 0.19,-7.186 0.292,-3.373 0,0" />
      </g>
      <g
         transform="translate(297.2148,377.8535)"
         id="g4061">
        <path
           inkscape:connector-curvature="0"
           id="path4063"
           style="fill:#e8c052;fill-opacity:1;fill-rule:nonzero;stroke:none"
           d="m 0,0 c 1.579,-2.357 3.274,-5.179 3.603,-8.027 0.179,-1.572 -0.177,-3.217 -0.851,-4.649 -0.505,3.323 -1.138,6.608 -1.976,9.863 0.777,-3.294 1.347,-6.614 1.78,-9.968 -1.138,0.698 -1.744,1.85 -2.076,3.038 C -0.345,-6.812 0.051,-3.17 0,0" />
      </g>
      <g
         transform="translate(294.7246,370.958)"
         id="g4065">
        <path
           inkscape:connector-curvature="0"
           id="path4067"
           style="fill:#e8c052;fill-opacity:1;fill-rule:nonzero;stroke:none"
           d="m 0,0 c 1.446,-2.273 3.005,-5.048 3.14,-7.771 0.077,-1.528 -0.432,-3.089 -1.228,-4.395 -0.289,3.188 -0.7,6.349 -1.326,9.49 0.559,-3.174 0.9,-6.362 1.11,-9.578 -1.104,0.718 -1.683,1.85 -1.949,3.035 C -0.88,-6.434 -0.193,-2.978 0,0" />
      </g>
      <g
         transform="translate(291.6089,364.603)"
         id="g4069">
        <path
           inkscape:connector-curvature="0"
           id="path4071"
           style="fill:#e8c052;fill-opacity:1;fill-rule:nonzero;stroke:none"
           d="M 0,0 C 1.311,-2.206 2.734,-4.969 2.68,-7.573 2.648,-9.06 1.99,-10.527 1.081,-11.698 0.999,-8.634 0.803,-5.593 0.394,-2.554 0.729,-5.621 0.849,-8.683 0.849,-11.765 -0.227,-11.02 -0.785,-9.9 -0.982,-8.71 -1.422,-6.06 -0.436,-2.786 0,0" />
      </g>
      <g
         transform="translate(287.8667,358.8018)"
         id="g4073">
        <path
           inkscape:connector-curvature="0"
           id="path4075"
           style="fill:#e8c052;fill-opacity:1;fill-rule:nonzero;stroke:none"
           d="m 0,0 c 1.176,-2.158 2.468,-4.92 2.234,-7.405 -0.136,-1.442 -0.94,-2.807 -1.957,-3.835 0.11,2.937 0.119,5.864 -0.074,8.799 0.111,-2.955 0.022,-5.895 -0.176,-8.844 -1.049,0.775 -1.599,1.886 -1.726,3.079 C -1.971,-5.681 -0.679,-2.586 0,0" />
      </g>
      <g
         transform="translate(283.4951,353.5674)"
         id="g4077">
        <path
           inkscape:connector-curvature="0"
           id="path4079"
           style="fill:#e8c052;fill-opacity:1;fill-rule:nonzero;stroke:none"
           d="m 0,0 c 1.044,-2.112 2.22,-4.876 1.82,-7.242 -0.237,-1.398 -1.192,-2.641 -2.297,-3.52 0.278,2.807 0.475,5.61 0.497,8.431 -0.106,-2.835 -0.391,-5.643 -0.763,-8.453 -0.96,0.74 -1.656,1.874 -1.652,3.096 C -2.379,-5.14 -0.911,-2.374 0,0" />
      </g>
      <g
         transform="translate(278.4951,348.9121)"
         id="g4081">
        <path
           inkscape:connector-curvature="0"
           id="path4083"
           style="fill:#e8c052;fill-opacity:1;fill-rule:nonzero;stroke:none"
           d="m 0,0 c 0.92,-2.052 2.002,-4.823 1.449,-7.054 -0.334,-1.354 -1.438,-2.454 -2.616,-3.176 0.426,2.663 0.794,5.325 1.012,8.015 -0.309,-2.694 -0.772,-5.355 -1.298,-8.014 -0.94,0.742 -1.679,1.871 -1.605,3.09 0.15,2.421 1.933,5 3.058,7.139" />
      </g>
      <g
         transform="translate(272.8618,344.8501)"
         id="g4085">
        <path
           inkscape:connector-curvature="0"
           id="path4087"
           style="fill:#e8c052;fill-opacity:1;fill-rule:nonzero;stroke:none"
           d="m 0,0 c 0.812,-1.974 1.831,-4.74 1.146,-6.817 -0.429,-1.303 -1.69,-2.24 -2.918,-2.799 0.549,2.498 1.06,4.998 1.46,7.526 -0.495,-2.524 -1.106,-5.016 -1.767,-7.501 -0.92,0.73 -1.738,1.84 -1.597,3.048 C -3.41,-4.254 -1.301,-1.891 0,0" />
      </g>
      <g
         transform="translate(266.5991,341.395)"
         id="g4089">
        <path
           inkscape:connector-curvature="0"
           id="path4091"
           style="fill:#e8c052;fill-opacity:1;fill-rule:nonzero;stroke:none"
           d="m 0,0 c 0.719,-1.862 1.712,-4.613 0.915,-6.507 -0.521,-1.241 -1.937,-1.982 -3.193,-2.38 0.644,2.303 1.274,4.61 1.82,6.94 -0.648,-2.32 -1.384,-4.61 -2.149,-6.893 -0.9,0.69 -1.84,1.772 -1.643,2.952 C -3.892,-3.746 -1.437,-1.614 0,0" />
      </g>
      <g
         transform="translate(259.7041,338.5586)"
         id="g4093">
        <path
           inkscape:connector-curvature="0"
           id="path4095"
           style="fill:#e8c052;fill-opacity:1;fill-rule:nonzero;stroke:none"
           d="m 0,0 c 0.645,-1.704 1.654,-4.42 0.774,-6.093 -0.611,-1.166 -2.185,-1.676 -3.442,-1.919 0.713,2.071 1.425,4.143 2.088,6.231 -0.771,-2.073 -1.599,-4.12 -2.441,-6.165 -0.871,0.622 -1.984,1.665 -1.743,2.793 C -4.344,-3.181 -1.522,-1.324 0,0" />
      </g>
      <g
         transform="translate(192.0215,394.7935)"
         id="g4097">
        <path
           inkscape:connector-curvature="0"
           id="path4099"
           style="fill:#e8c052;fill-opacity:1;fill-rule:nonzero;stroke:none"
           d="m 0,0 c 0.983,-4.283 2.47,-8.558 3.135,-12.847 0.344,-2.213 0.419,-4.528 0.057,-6.774 -1.444,5.029 -2.395,10.138 -2.919,15.342 0.464,-5.235 1.352,-10.383 2.732,-15.455 -1.486,1.328 -2.344,3.191 -2.836,5.044 C -1.044,-10.114 -0.52,-4.756 0,0" />
      </g>
      <g
         transform="translate(187.2358,377.002)"
         id="g4101">
        <path
           inkscape:connector-curvature="0"
           id="path4103"
           style="fill:#e8c052;fill-opacity:1;fill-rule:nonzero;stroke:none"
           d="M 0,0 C 2.133,0.114 4.801,-0.207 6.429,-1.664 7.516,-2.637 8.173,-4.113 8.623,-5.499 6.359,-4.033 4.143,-2.498 1.842,-1.09 4.121,-2.597 6.321,-4.214 8.571,-5.762 7.635,-6.369 6.426,-6.489 5.427,-5.979 3.149,-4.811 1.39,-2.106 0,0" />
      </g>
      <g
         transform="translate(189.105,369.7124)"
         id="g4105">
        <path
           inkscape:connector-curvature="0"
           id="path4107"
           style="fill:#e8c052;fill-opacity:1;fill-rule:nonzero;stroke:none"
           d="m 0,0 c 2.248,0.113 5.022,-0.131 6.866,-1.483 1.18,-0.866 2.003,-2.24 2.592,-3.578 -2.5,1.302 -4.95,2.701 -7.445,4.015 2.481,-1.407 4.916,-2.89 7.412,-4.27 C 8.463,-5.96 7.216,-6.112 6.148,-5.666 3.689,-4.638 1.639,-2.053 0,0" />
      </g>
      <g
         transform="translate(191.6533,362.6738)"
         id="g4109">
        <path
           inkscape:connector-curvature="0"
           id="path4111"
           style="fill:#e8c052;fill-opacity:1;fill-rule:nonzero;stroke:none"
           d="M 0,0 C 2.351,0.161 5.218,0.053 7.271,-1.156 8.537,-1.902 9.518,-3.159 10.247,-4.431 7.526,-3.343 4.859,-2.127 2.174,-0.955 4.849,-2.218 7.509,-3.513 10.229,-4.679 9.18,-5.421 7.961,-5.515 6.829,-5.216 4.313,-4.553 1.873,-1.959 0,0" />
      </g>
      <g
         transform="translate(194.8521,355.9687)"
         id="g4113">
        <path
           inkscape:connector-curvature="0"
           id="path4115"
           style="fill:#e8c052;fill-opacity:1;fill-rule:nonzero;stroke:none"
           d="m 0,0 c 2.45,0.247 5.39,0.315 7.649,-0.713 1.348,-0.613 2.476,-1.737 3.35,-2.932 -2.927,0.84 -5.803,1.83 -8.68,2.821 2.874,-1.078 5.746,-2.145 8.677,-3.06 C 9.932,-4.684 8.671,-4.857 7.469,-4.648 4.824,-4.188 2.104,-1.83 0,0" />
      </g>
      <g
         transform="translate(198.6602,349.6753)"
         id="g4117">
        <path
           inkscape:connector-curvature="0"
           id="path4119"
           style="fill:#e8c052;fill-opacity:1;fill-rule:nonzero;stroke:none"
           d="m 0,0 c 2.553,0.369 5.559,0.642 8.021,-0.177 1.422,-0.472 2.694,-1.449 3.712,-2.552 -3.121,0.564 -6.199,1.293 -9.274,2.07 C 5.534,-1.52 8.616,-2.325 11.747,-2.958 10.727,-3.773 9.369,-4.145 8.085,-3.974 5.202,-3.59 2.336,-1.668 0,0" />
      </g>
      <g
         transform="translate(203.0405,343.8726)"
         id="g4121">
        <path
           inkscape:connector-curvature="0"
           id="path4123"
           style="fill:#e8c052;fill-opacity:1;fill-rule:nonzero;stroke:none"
           d="M 0,0 C 2.667,0.52 5.738,1.012 8.401,0.426 9.895,0.097 11.307,-0.718 12.472,-1.713 9.161,-1.438 5.877,-0.996 2.596,-0.468 5.881,-1.077 9.173,-1.591 12.497,-1.933 11.398,-2.854 10.032,-3.22 8.684,-3.21 5.792,-3.193 2.577,-1.472 0,0" />
      </g>
      <g
         transform="translate(207.958,338.6382)"
         id="g4125">
        <path
           inkscape:connector-curvature="0"
           id="path4127"
           style="fill:#e8c052;fill-opacity:1;fill-rule:nonzero;stroke:none"
           d="m 0,0 c 2.793,0.691 5.937,1.407 8.802,1.07 1.568,-0.184 3.107,-0.828 4.427,-1.701 -3.505,-0.017 -7,0.123 -10.496,0.377 3.506,-0.331 7.012,-0.54 10.533,-0.583 C 12.123,-1.817 10.697,-2.27 9.276,-2.374 6.268,-2.593 2.827,-1.244 0,0" />
      </g>
      <g
         transform="translate(213.3779,334.0562)"
         id="g4129">
        <path
           inkscape:connector-curvature="0"
           id="path4131"
           style="fill:#e8c052;fill-opacity:1;fill-rule:nonzero;stroke:none"
           d="M 0,0 C 2.935,0.879 6.237,1.865 9.239,1.725 10.87,1.65 12.514,1.232 14.022,0.486 10.31,0.181 6.596,0.014 2.872,-0.028 6.608,-0.06 10.338,0.044 14.066,0.294 12.867,-0.733 11.363,-1.271 9.864,-1.482 6.716,-1.925 3.086,-0.979 0,0" />
      </g>
      <g
         transform="translate(219.2583,330.2021)"
         id="g4133">
        <path
           inkscape:connector-curvature="0"
           id="path4135"
           style="fill:#e8c052;fill-opacity:1;fill-rule:nonzero;stroke:none"
           d="M 0,0 C 3.104,1.068 6.45,2.188 9.731,2.369 11.454,2.463 13.236,2.179 14.872,1.606 10.933,1.03 6.986,0.556 3.02,0.208 7.003,0.49 10.967,0.906 14.923,1.433 13.631,0.373 12.049,-0.231 10.468,-0.549 7.166,-1.212 3.357,-0.677 0,0" />
      </g>
      <g
         transform="translate(225.5674,327.1572)"
         id="g4137">
        <path
           inkscape:connector-curvature="0"
           id="path4139"
           style="fill:#e8c052;fill-opacity:1;fill-rule:nonzero;stroke:none"
           d="M 0,0 C 3.293,1.252 6.832,2.596 10.287,2.972 12.098,3.17 13.978,3.098 15.791,2.702 11.601,1.87 7.399,1.104 3.178,0.444 7.418,1.043 11.637,1.761 15.847,2.549 14.44,1.479 12.757,0.822 11.088,0.41 7.595,-0.453 3.631,-0.337 0,0" />
      </g>
      <g
         transform="translate(200.1362,385.2759)"
         id="g4141">
        <path
           inkscape:connector-curvature="0"
           id="path4143"
           style="fill:#e8c052;fill-opacity:1;fill-rule:nonzero;stroke:none"
           d="m 0,0 c -1.707,-2.482 -3.604,-5.435 -4.051,-8.366 -0.245,-1.611 -0.096,-3.301 0.461,-4.892 0.732,3.467 1.583,6.898 2.629,10.288 -0.99,-3.432 -1.785,-6.901 -2.448,-10.409 1.163,0.685 1.812,1.879 2.201,3.075 C -0.188,-7.186 -0.291,-3.373 0,0" />
      </g>
      <g
         transform="translate(202.0005,377.8535)"
         id="g4145">
        <path
           inkscape:connector-curvature="0"
           id="path4147"
           style="fill:#e8c052;fill-opacity:1;fill-rule:nonzero;stroke:none"
           d="m 0,0 c -1.579,-2.357 -3.274,-5.179 -3.603,-8.027 -0.179,-1.572 0.176,-3.217 0.851,-4.649 0.504,3.323 1.138,6.608 1.977,9.863 -0.779,-3.294 -1.348,-6.614 -1.78,-9.968 1.138,0.698 1.742,1.85 2.075,3.038 C 0.345,-6.812 -0.052,-3.17 0,0" />
      </g>
      <g
         transform="translate(204.4902,370.958)"
         id="g4149">
        <path
           inkscape:connector-curvature="0"
           id="path4151"
           style="fill:#e8c052;fill-opacity:1;fill-rule:nonzero;stroke:none"
           d="m 0,0 c -1.446,-2.273 -3.005,-5.048 -3.14,-7.771 -0.076,-1.528 0.432,-3.089 1.228,-4.395 0.289,3.188 0.7,6.349 1.327,9.49 -0.56,-3.174 -0.901,-6.362 -1.111,-9.578 1.106,0.718 1.684,1.85 1.95,3.035 C 0.881,-6.434 0.193,-2.978 0,0" />
      </g>
      <g
         transform="translate(207.606,364.603)"
         id="g4153">
        <path
           inkscape:connector-curvature="0"
           id="path4155"
           style="fill:#e8c052;fill-opacity:1;fill-rule:nonzero;stroke:none"
           d="m 0,0 c -1.311,-2.206 -2.733,-4.969 -2.679,-7.573 0.031,-1.487 0.69,-2.954 1.599,-4.125 0.081,3.064 0.278,6.105 0.686,9.144 -0.333,-3.067 -0.455,-6.129 -0.454,-9.211 C 0.227,-11.02 0.785,-9.9 0.983,-8.71 1.423,-6.06 0.437,-2.786 0,0" />
      </g>
      <g
         transform="translate(211.3477,358.8018)"
         id="g4157">
        <path
           inkscape:connector-curvature="0"
           id="path4159"
           style="fill:#e8c052;fill-opacity:1;fill-rule:nonzero;stroke:none"
           d="m 0,0 c -1.175,-2.158 -2.467,-4.92 -2.233,-7.405 0.136,-1.442 0.94,-2.807 1.956,-3.835 -0.108,2.937 -0.118,5.864 0.074,8.799 -0.11,-2.955 -0.02,-5.895 0.176,-8.844 1.05,0.775 1.599,1.886 1.728,3.079 C 1.973,-5.681 0.68,-2.586 0,0" />
      </g>
      <g
         transform="translate(215.7197,353.5674)"
         id="g4161">
        <path
           inkscape:connector-curvature="0"
           id="path4163"
           style="fill:#e8c052;fill-opacity:1;fill-rule:nonzero;stroke:none"
           d="m 0,0 c -1.043,-2.112 -2.22,-4.876 -1.819,-7.242 0.236,-1.398 1.191,-2.641 2.296,-3.52 -0.278,2.807 -0.475,5.61 -0.496,8.431 0.106,-2.835 0.391,-5.643 0.763,-8.453 0.961,0.74 1.655,1.874 1.651,3.096 C 2.38,-5.14 0.912,-2.374 0,0" />
      </g>
      <g
         transform="translate(220.7202,348.9121)"
         id="g4165">
        <path
           inkscape:connector-curvature="0"
           id="path4167"
           style="fill:#e8c052;fill-opacity:1;fill-rule:nonzero;stroke:none"
           d="m 0,0 c -0.92,-2.052 -2.002,-4.823 -1.45,-7.054 0.333,-1.354 1.44,-2.454 2.616,-3.176 -0.424,2.663 -0.792,5.325 -1.011,8.015 0.309,-2.694 0.772,-5.355 1.298,-8.014 0.94,0.742 1.679,1.871 1.604,3.09 C 2.907,-4.718 1.124,-2.139 0,0" />
      </g>
      <g
         transform="translate(226.3525,344.8501)"
         id="g4169">
        <path
           inkscape:connector-curvature="0"
           id="path4171"
           style="fill:#e8c052;fill-opacity:1;fill-rule:nonzero;stroke:none"
           d="M 0,0 C -0.812,-1.974 -1.83,-4.74 -1.145,-6.817 -0.716,-8.12 0.544,-9.057 1.773,-9.616 1.223,-7.118 0.712,-4.618 0.313,-2.09 0.807,-4.614 1.42,-7.106 2.08,-9.591 3,-8.861 3.818,-7.751 3.678,-6.543 3.41,-4.254 1.302,-1.891 0,0" />
      </g>
      <g
         transform="translate(232.6157,341.395)"
         id="g4173">
        <path
           inkscape:connector-curvature="0"
           id="path4175"
           style="fill:#e8c052;fill-opacity:1;fill-rule:nonzero;stroke:none"
           d="m 0,0 c -0.718,-1.862 -1.711,-4.613 -0.915,-6.507 0.522,-1.241 1.938,-1.982 3.193,-2.38 -0.643,2.303 -1.273,4.61 -1.82,6.94 0.649,-2.32 1.385,-4.61 2.149,-6.893 0.901,0.69 1.84,1.772 1.643,2.952 C 3.892,-3.746 1.437,-1.614 0,0" />
      </g>
      <g
         transform="translate(239.5103,338.5586)"
         id="g4177">
        <path
           inkscape:connector-curvature="0"
           id="path4179"
           style="fill:#e8c052;fill-opacity:1;fill-rule:nonzero;stroke:none"
           d="m 0,0 c -0.643,-1.704 -1.653,-4.42 -0.773,-6.093 0.611,-1.166 2.186,-1.676 3.443,-1.919 -0.714,2.071 -1.425,4.143 -2.088,6.231 0.77,-2.073 1.598,-4.12 2.439,-6.165 0.871,0.622 1.984,1.665 1.744,2.793 C 4.345,-3.181 1.524,-1.324 0,0" />
      </g>
      <g
         transform="translate(249.6079,332.8604)"
         id="g4181">
        <path
           inkscape:connector-curvature="0"
           id="path4183"
           style="fill:#e8c052;fill-opacity:1;fill-rule:nonzero;stroke:none"
           d="M 0,0 1.141,-2.311 3.691,-2.681 1.846,-4.48 2.282,-7.021 0,-5.82 l -2.28,-1.201 0.435,2.541 -1.846,1.799 2.551,0.37 z" />
      </g>
      <g
         transform="translate(249.6084,343.8379)"
         id="g4185">
        <path
           inkscape:connector-curvature="0"
           id="path4187"
           style="fill:#e8c052;fill-opacity:1;fill-rule:nonzero;stroke:none"
           d="m 0,0 c -20.54,0 -37.189,16.649 -37.189,37.188 0,20.54 16.649,37.189 37.189,37.189 20.537,0 37.188,-16.649 37.188,-37.189 C 37.188,16.649 20.537,0 0,0 m 0,77.233 c -22.116,0 -40.045,-17.928 -40.045,-40.045 0,-22.116 17.929,-40.044 40.045,-40.044 22.116,0 40.043,17.928 40.043,40.044 0,22.117 -17.927,40.045 -40.043,40.045" />
      </g>
      <g
         transform="translate(249.6079,346.2441)"
         id="g4189">
        <path
           inkscape:connector-curvature="0"
           id="path4191"
           style="fill:#e8c052;fill-opacity:1;fill-rule:nonzero;stroke:none"
           d="m 0,0 c -19.21,0 -34.782,15.572 -34.782,34.782 0,19.21 15.572,34.782 34.782,34.782 19.209,0 34.781,-15.572 34.781,-34.782 C 34.781,15.572 19.209,0 0,0 m 0,70.815 c -19.9,0 -36.033,-16.132 -36.033,-36.033 C -36.033,14.881 -19.9,-1.25 0,-1.25 c 19.901,0 36.032,16.131 36.032,36.032 0,19.901 -16.131,36.033 -36.032,36.033" />
      </g>
      <g
         transform="translate(250.9883,365.9268)"
         id="g4193">
        <path
           inkscape:connector-curvature="0"
           id="path4195"
           style="fill:#e8c052;fill-opacity:1;fill-rule:nonzero;stroke:none"
           d="m 0,0 c -1.104,1.569 -2.317,2.039 -4.327,2.039 h -7.803 -7.804 c -2.011,0 -3.224,-0.47 -4.328,-2.039 -1.319,-1.875 -3.476,-2.394 -3.476,-2.394 H -12.13 3.475 c 0,0 -2.156,0.519 -3.475,2.394" />
      </g>
      <g
         transform="translate(248.6484,369.5552)"
         id="g4197">
        <path
           inkscape:connector-curvature="0"
           id="path4199"
           style="fill:#e8c052;fill-opacity:1;fill-rule:nonzero;stroke:none"
           d="m 0,0 c 0,-0.453 -0.46,-0.82 -1.029,-0.82 h -17.524 c -0.568,0 -1.029,0.367 -1.029,0.82 0,0.454 0.461,0.82 1.029,0.82 H -1.029 C -0.46,0.82 0,0.454 0,0" />
      </g>
      <g
         transform="translate(251.6836,391.2925)"
         id="g4201">
        <path
           inkscape:connector-curvature="0"
           id="path4203"
           style="fill:#e8c052;fill-opacity:1;fill-rule:nonzero;stroke:none"
           d="m 0,0 -4.692,3.271 -4.692,3.271 c 0,0 -2.183,-3.829 -4.567,-7.249 -2.126,-3.049 -5.221,-6.791 -5.221,-6.791 l 4.691,-3.271 4.692,-3.271 c 0,0 2.441,4.197 4.567,7.248 C -2.838,-3.373 0,0 0,0" />
      </g>
      <g
         transform="translate(252.6528,391.751)"
         id="g4205">
        <path
           inkscape:connector-curvature="0"
           id="path4207"
           style="fill:#e8c052;fill-opacity:1;fill-rule:nonzero;stroke:none"
           d="m 0,0 c -0.131,-0.188 -0.327,-0.279 -0.437,-0.202 l -9.859,6.874 c -0.111,0.077 -0.093,0.291 0.038,0.479 0.133,0.189 0.327,0.28 0.437,0.203 L 0.038,0.48 C 0.148,0.404 0.131,0.188 0,0" />
      </g>
      <g
         transform="translate(254.9238,392.7891)"
         id="g4209">
        <path
           inkscape:connector-curvature="0"
           id="path4211"
           style="fill:#e8c052;fill-opacity:1;fill-rule:nonzero;stroke:none"
           d="m 0,0 c -0.358,-0.512 -1.192,-0.546 -1.866,-0.078 l -9.902,6.904 c -0.672,0.469 -0.929,1.265 -0.572,1.778 0.357,0.512 1.193,0.546 1.865,0.077 L -0.573,1.778 C 0.1,1.309 0.356,0.512 0,0" />
      </g>
      <g
         transform="translate(241.7993,376.1841)"
         id="g4213">
        <path
           inkscape:connector-curvature="0"
           id="path4215"
           style="fill:#e8c052;fill-opacity:1;fill-rule:nonzero;stroke:none"
           d="M 0,0 C 0.13,0.188 0.148,0.403 0.039,0.479 L -9.82,7.354 C -9.931,7.43 -10.126,7.339 -10.257,7.151 -10.388,6.963 -10.406,6.749 -10.296,6.672 l 9.859,-6.874 C -0.327,-0.279 -0.132,-0.187 0,0" />
      </g>
      <g
         transform="translate(241.6108,373.6938)"
         id="g4217">
        <path
           inkscape:connector-curvature="0"
           id="path4219"
           style="fill:#e8c052;fill-opacity:1;fill-rule:nonzero;stroke:none"
           d="m 0,0 c 0.357,0.512 0.1,1.308 -0.573,1.778 l -9.901,6.903 c -0.674,0.469 -1.509,0.435 -1.866,-0.077 -0.358,-0.513 -0.101,-1.309 0.572,-1.778 l 9.902,-6.903 C -1.193,-0.546 -0.357,-0.512 0,0" />
      </g>
      <g
         transform="translate(272.6504,367.9443)"
         id="g4221">
        <path
           inkscape:connector-curvature="0"
           id="path4223"
           style="fill:#e8c052;fill-opacity:1;fill-rule:nonzero;stroke:none"
           d="m 0,0 c -13.066,8.224 -24.127,15.279 -31.541,20.031 l -0.501,-0.719 C -25.02,14 -14.574,6.061 -2.34,-3.357 -0.274,-4.946 1.96,-6.108 3.015,-4.596 4.07,-3.083 2.207,-1.388 0,0" />
      </g>
    </g>
  </g>
</svg>
