<?xml version="1.0" encoding="UTF-8" standalone="no"?>
<!-- Created with Inkscape (http://www.inkscape.org/) -->

<svg
   xmlns:dc="http://purl.org/dc/elements/1.1/"
   xmlns:cc="http://creativecommons.org/ns#"
   xmlns:rdf="http://www.w3.org/1999/02/22-rdf-syntax-ns#"
   xmlns:svg="http://www.w3.org/2000/svg"
   xmlns="http://www.w3.org/2000/svg"
   xmlns:sodipodi="http://sodipodi.sourceforge.net/DTD/sodipodi-0.dtd"
   xmlns:inkscape="http://www.inkscape.org/namespaces/inkscape"
   width="210mm"
   height="297mm"
   viewBox="0 0 210 297"
   version="1.1"
   id="svg6380"
   inkscape:version="0.92.3 (2405546, 2018-03-11)"
   sodipodi:docname="card_famimg.svg">
  <defs
     id="defs6374">
    <clipPath
       id="clipPath3863"
       clipPathUnits="userSpaceOnUse">
      <path
         inkscape:connector-curvature="0"
         id="path3861"
         d="M 0,500 H 500 V 0 H 0 Z" />
    </clipPath>
  </defs>
  <sodipodi:namedview
     id="base"
     pagecolor="#ffffff"
     bordercolor="#666666"
     borderopacity="1.0"
     inkscape:pageopacity="0.0"
     inkscape:pageshadow="2"
     inkscape:zoom="0.35"
     inkscape:cx="400"
     inkscape:cy="560"
     inkscape:document-units="mm"
     inkscape:current-layer="layer1"
     showgrid="false"
     inkscape:window-width="1920"
     inkscape:window-height="1016"
     inkscape:window-x="0"
     inkscape:window-y="27"
     inkscape:window-maximized="1" />
  <metadata
     id="metadata6377">
    <rdf:RDF>
      <cc:Work
         rdf:about="">
        <dc:format>image/svg+xml</dc:format>
        <dc:type
           rdf:resource="http://purl.org/dc/dcmitype/StillImage" />
        <dc:title></dc:title>
      </cc:Work>
    </rdf:RDF>
  </metadata>
  <g
     inkscape:label="Layer 1"
     inkscape:groupmode="layer"
     id="layer1">
    <g
       id="g3857"
       transform="matrix(1.3893403,0,0,-1.3893403,-449.49721,371.03585)">
      <g
         clip-path="url(#clipPath3863)"
         id="g3859">
        <g
           transform="translate(398.8223,166.7676)"
           id="g3865">
          <path
             inkscape:connector-curvature="0"
             id="path3867"
             style="fill:#e8c052;fill-opacity:1;fill-rule:nonzero;stroke:none"
             d="m 0,0 c 0.015,-0.164 0.039,-0.346 0.062,-0.549 0.053,-0.231 0.086,-0.505 0.17,-0.752 0.04,-0.13 0.079,-0.258 0.119,-0.384 0.033,-0.132 0.089,-0.248 0.14,-0.364 0.051,-0.117 0.103,-0.232 0.152,-0.341 0.024,-0.054 0.047,-0.107 0.071,-0.161 0.029,-0.047 0.058,-0.093 0.084,-0.137 0.228,-0.363 0.38,-0.604 0.38,-0.604 0,0 -0.26,0.135 -0.648,0.337 -0.05,0.027 -0.101,0.055 -0.155,0.084 -0.05,0.034 -0.099,0.069 -0.152,0.106 -0.106,0.075 -0.217,0.154 -0.33,0.236 -0.117,0.084 -0.243,0.17 -0.349,0.273 -0.113,0.102 -0.227,0.206 -0.341,0.309 -0.094,0.083 -0.176,0.172 -0.258,0.26 -0.883,-1.512 -1.577,-3.007 -2.125,-4.463 0.002,-0.023 0.006,-0.04 0.01,-0.064 0.023,-0.187 0.082,-0.401 0.135,-0.641 0.076,-0.224 0.139,-0.493 0.248,-0.731 0.053,-0.123 0.106,-0.247 0.159,-0.368 0.049,-0.128 0.116,-0.236 0.18,-0.348 0.066,-0.111 0.128,-0.22 0.188,-0.323 0.033,-0.053 0.062,-0.104 0.092,-0.153 0.034,-0.044 0.065,-0.087 0.098,-0.128 0.269,-0.338 0.447,-0.564 0.447,-0.564 0,0 -0.281,0.086 -0.704,0.216 -0.055,0.018 -0.113,0.035 -0.172,0.055 -0.053,0.024 -0.111,0.051 -0.169,0.078 -0.121,0.055 -0.245,0.114 -0.376,0.175 -0.132,0.062 -0.272,0.127 -0.398,0.21 -0.132,0.082 -0.265,0.164 -0.398,0.248 -0.032,0.019 -0.057,0.042 -0.088,0.061 -2.309,-8.19 -0.142,-14.705 -0.082,-15.502 0.202,-2.824 -1.493,-7.102 -1.493,-7.102 l 0.162,0.278 c 0.033,0.077 0.095,0.228 0.194,0.459 0.071,0.168 0.158,0.376 0.261,0.621 0.093,0.241 0.2,0.517 0.323,0.827 0.237,0.624 0.518,1.397 0.817,2.291 0.304,0.894 0.626,1.911 0.968,3.029 0.683,2.234 1.437,4.87 2.329,7.676 0.448,1.404 0.937,2.847 1.468,4.301 0.537,1.454 1.126,2.915 1.759,4.357 0.639,1.439 1.342,2.85 2.073,4.216 0.752,1.355 1.516,2.673 2.337,3.899 0.393,0.624 0.831,1.203 1.231,1.788 0.42,0.571 0.836,1.124 1.248,1.659 0.43,0.522 0.831,1.04 1.246,1.521 0.418,0.476 0.814,0.944 1.212,1.378 0.401,0.427 0.787,0.839 1.153,1.23 0.382,0.376 0.742,0.733 1.081,1.07 0.677,0.672 1.307,1.217 1.805,1.686 1.041,0.891 1.634,1.399 1.634,1.399 0,0 -0.575,-0.528 -1.583,-1.454 C 15.735,10.714 15.124,10.15 14.472,9.455 14.146,9.109 13.8,8.742 13.434,8.352 13.083,7.951 12.712,7.528 12.327,7.089 11.948,6.646 11.572,6.164 11.17,5.679 10.775,5.187 10.394,4.658 9.989,4.127 9.598,3.583 9.204,3.02 8.808,2.44 8.432,1.847 8.019,1.261 7.652,0.628 6.882,-0.609 6.17,-1.94 5.475,-3.302 4.803,-4.675 4.157,-6.089 3.576,-7.531 3.003,-8.974 2.47,-10.434 1.992,-11.888 c -0.477,-1.453 -0.909,-2.897 -1.305,-4.301 -0.787,-2.813 -1.448,-5.466 -2.058,-7.741 -0.14,-0.519 -0.277,-1.018 -0.41,-1.497 6.808,3.446 11.084,8.538 13.844,13.743 -0.145,-0.047 -0.291,-0.096 -0.433,-0.143 -0.219,-0.058 -0.435,-0.116 -0.645,-0.17 -0.21,-0.043 -0.412,-0.085 -0.606,-0.123 -0.19,-0.04 -0.376,-0.057 -0.544,-0.081 -0.335,-0.054 -0.618,-0.064 -0.814,-0.081 -0.195,-0.013 -0.306,-0.022 -0.306,-0.022 0,0 0.106,0.035 0.292,0.096 0.186,0.062 0.452,0.139 0.761,0.269 0.153,0.065 0.323,0.121 0.495,0.204 0.17,0.081 0.35,0.166 0.534,0.253 0.181,0.098 0.366,0.2 0.554,0.303 0.18,0.114 0.363,0.229 0.545,0.345 0.176,0.127 0.356,0.241 0.519,0.375 0.155,0.122 0.307,0.242 0.447,0.369 2.727,5.768 3.727,11.48 4.381,15.062 C 17.219,4.98 17.201,4.99 17.177,5 c -0.074,0.029 -0.149,0.06 -0.228,0.091 -0.078,0.034 -0.16,0.053 -0.242,0.08 -0.166,0.056 -0.336,0.101 -0.499,0.132 -0.082,0.018 -0.161,0.033 -0.237,0.05 -0.075,0.019 -0.146,0.022 -0.214,0.032 -0.272,0.031 -0.452,0.051 -0.452,0.051 0,0 0.171,0.066 0.43,0.164 0.066,0.022 0.137,0.056 0.216,0.074 0.076,0.022 0.158,0.044 0.244,0.067 0.172,0.052 0.356,0.092 0.548,0.123 0.095,0.016 0.19,0.039 0.286,0.045 0.097,0.01 0.19,0.021 0.283,0.028 0.037,0.004 0.073,0.006 0.11,0.008 0.153,0.807 0.292,1.46 0.44,1.926 0.135,0.419 0.276,0.82 0.422,1.209 -0.066,0.034 -0.136,0.066 -0.207,0.091 -0.139,0.058 -0.281,0.111 -0.42,0.145 -0.136,0.04 -0.268,0.082 -0.383,0.097 -0.232,0.04 -0.387,0.066 -0.387,0.066 0,0 0.155,0.04 0.385,0.096 0.119,0.034 0.256,0.049 0.409,0.071 0.153,0.025 0.318,0.036 0.484,0.039 0.119,0.006 0.237,0.003 0.354,-0.005 2.327,5.681 5.923,8.03 5.923,8.03 C 11.551,12.553 4.155,6.188 0,0" />
        </g>
        <g
           transform="translate(406.3267,129.5723)"
           id="g3869">
          <path
             inkscape:connector-curvature="0"
             id="path3871"
             style="fill:#e8c052;fill-opacity:1;fill-rule:nonzero;stroke:none"
             d="m 0,0 c -1.081,1.532 -2.265,1.993 -4.231,1.993 h -7.629 -7.63 c -1.966,0 -3.152,-0.461 -4.231,-1.993 -1.289,-1.833 -3.399,-2.342 -3.399,-2.342 h 15.26 15.259 c 0,0 -2.108,0.509 -3.399,2.342" />
        </g>
        <g
           transform="translate(402.9185,133.1191)"
           id="g3873">
          <path
             inkscape:connector-curvature="0"
             id="path3875"
             style="fill:#e8c052;fill-opacity:1;fill-rule:nonzero;stroke:none"
             d="m 0,0 c 0,-0.443 -0.398,-0.802 -0.889,-0.802 h -15.129 c -0.489,0 -0.889,0.359 -0.889,0.802 0,0.442 0.4,0.801 0.889,0.801 H -0.889 C -0.398,0.801 0,0.442 0,0" />
        </g>
        <g
           transform="translate(361.5386,163.7959)"
           id="g3877">
          <path
             inkscape:connector-curvature="0"
             id="path3879"
             style="fill:#e8c052;fill-opacity:1;fill-rule:nonzero;stroke:none"
             d="M 0,0 H 0.003 C 3.696,18.551 20.061,32.534 39.697,32.534 59.331,32.534 75.698,18.551 79.389,0 h 0.005 c 0.057,-0.297 0.106,-0.602 0.157,-0.903 h 16.16 C 95.673,-0.602 95.637,-0.302 95.587,0 H 80.407 C 76.702,19.105 59.884,33.53 39.697,33.53 19.508,33.53 2.692,19.105 -1.013,0 h -15.18 c -0.05,-0.302 -0.086,-0.602 -0.124,-0.903 H -0.163 C -0.111,-0.602 -0.059,-0.297 0,0" />
        </g>
        <g
           transform="translate(361.376,148.8105)"
           id="g3881">
          <path
             inkscape:connector-curvature="0"
             id="path3883"
             style="fill:#e8c052;fill-opacity:1;fill-rule:nonzero;stroke:none"
             d="m 0,0 h -16.155 c 0.039,-0.301 0.075,-0.603 0.124,-0.897 H 0.163 C 0.104,-0.603 0.051,-0.301 0,0" />
        </g>
        <g
           transform="translate(440.9326,147.9131)"
           id="g3885">
          <path
             inkscape:connector-curvature="0"
             id="path3887"
             style="fill:#e8c052;fill-opacity:1;fill-rule:nonzero;stroke:none"
             d="m 0,0 h 16.193 c 0.05,0.295 0.086,0.597 0.124,0.897 H 0.157 C 0.106,0.597 0.057,0.295 0,0" />
        </g>
        <g
           transform="translate(401.2358,115.3779)"
           id="g3889">
          <path
             inkscape:connector-curvature="0"
             id="path3891"
             style="fill:#e8c052;fill-opacity:1;fill-rule:nonzero;stroke:none"
             d="M 0,0 C -19.636,0 -36.001,13.983 -39.692,32.534 H -40.71 C -37.005,13.43 -20.189,-0.998 0,-0.998 c 20.187,0 37.004,14.428 40.71,33.532 H 39.691 C 36,13.983 19.634,0 0,0" />
        </g>
        <g
           transform="translate(359.4829,165.0488)"
           id="g3893">
          <path
             inkscape:connector-curvature="0"
             id="path3895"
             style="fill:#e8c052;fill-opacity:1;fill-rule:nonzero;stroke:none"
             d="M 0,0 C 4.208,19.188 21.301,33.552 41.753,33.552 62.203,33.552 79.298,19.188 83.503,0 H 97.524 C 93.131,26.841 69.837,47.324 41.753,47.324 13.669,47.324 -9.627,26.841 -14.019,0 Z" />
        </g>
        <g
           transform="translate(442.9863,146.6582)"
           id="g3897">
          <path
             inkscape:connector-curvature="0"
             id="path3899"
             style="fill:#e8c052;fill-opacity:1;fill-rule:nonzero;stroke:none"
             d="m 0,0 c -4.206,-19.188 -21.301,-33.552 -41.75,-33.552 -20.453,0 -37.545,14.364 -41.753,33.552 h -14.019 c 4.392,-26.841 27.688,-47.325 55.772,-47.325 28.083,0 51.377,20.484 55.771,47.325 z" />
        </g>
      </g>
    </g>
  </g>
</svg>
