<?xml version="1.0" encoding="UTF-8" standalone="no"?>
<!-- Created with Inkscape (http://www.inkscape.org/) -->

<svg
   xmlns:dc="http://purl.org/dc/elements/1.1/"
   xmlns:cc="http://creativecommons.org/ns#"
   xmlns:rdf="http://www.w3.org/1999/02/22-rdf-syntax-ns#"
   xmlns:svg="http://www.w3.org/2000/svg"
   xmlns="http://www.w3.org/2000/svg"
   xmlns:sodipodi="http://sodipodi.sourceforge.net/DTD/sodipodi-0.dtd"
   xmlns:inkscape="http://www.inkscape.org/namespaces/inkscape"
   width="210mm"
   height="297mm"
   viewBox="0 0 210 297"
   version="1.1"
   id="svg5009"
   inkscape:version="0.92.3 (2405546, 2018-03-11)"
   sodipodi:docname="card_penalimg.svg">
  <defs
     id="defs5003">
    <clipPath
       id="clipPath3771"
       clipPathUnits="userSpaceOnUse">
      <path
         inkscape:connector-curvature="0"
         id="path3769"
         d="M 0,500 H 500 V 0 H 0 Z" />
    </clipPath>
  </defs>
  <sodipodi:namedview
     id="base"
     pagecolor="#ffffff"
     bordercolor="#666666"
     borderopacity="1.0"
     inkscape:pageopacity="0.0"
     inkscape:pageshadow="2"
     inkscape:zoom="0.35"
     inkscape:cx="400"
     inkscape:cy="560"
     inkscape:document-units="mm"
     inkscape:current-layer="layer1"
     showgrid="false"
     inkscape:window-width="1920"
     inkscape:window-height="1016"
     inkscape:window-x="0"
     inkscape:window-y="27"
     inkscape:window-maximized="1" />
  <metadata
     id="metadata5006">
    <rdf:RDF>
      <cc:Work
         rdf:about="">
        <dc:format>image/svg+xml</dc:format>
        <dc:type
           rdf:resource="http://purl.org/dc/dcmitype/StillImage" />
        <dc:title />
      </cc:Work>
    </rdf:RDF>
  </metadata>
  <g
     inkscape:label="Layer 1"
     inkscape:groupmode="layer"
     id="layer1">
    <g
       id="g3765"
       transform="matrix(1.678902,0,0,-1.678902,-59.848851,797.1714)">
      <g
         clip-path="url(#clipPath3771)"
         id="g3767">
        <g
           transform="translate(100.5142,380.875)"
           id="g3773">
          <path
             inkscape:connector-curvature="0"
             id="path3775"
             style="fill:#e8c052;fill-opacity:1;fill-rule:nonzero;stroke:none"
             d="M 0,0 C 0.012,-0.153 0.035,-0.32 0.056,-0.507 0.106,-0.721 0.135,-0.973 0.212,-1.201 0.249,-1.321 0.286,-1.438 0.321,-1.556 0.354,-1.678 0.405,-1.784 0.452,-1.892 0.5,-2 0.547,-2.106 0.592,-2.206 c 0.023,-0.051 0.044,-0.1 0.066,-0.149 0.028,-0.043 0.053,-0.085 0.078,-0.125 0.21,-0.335 0.349,-0.56 0.349,-0.56 0,0 -0.239,0.126 -0.596,0.311 -0.048,0.026 -0.095,0.051 -0.144,0.078 -0.045,0.032 -0.093,0.065 -0.14,0.098 -0.098,0.069 -0.2,0.142 -0.306,0.219 -0.107,0.077 -0.223,0.156 -0.321,0.251 -0.105,0.094 -0.208,0.19 -0.315,0.286 -0.086,0.076 -0.162,0.158 -0.238,0.24 -0.815,-1.396 -1.456,-2.776 -1.962,-4.121 0.003,-0.019 0.005,-0.036 0.009,-0.057 0.022,-0.173 0.075,-0.371 0.126,-0.593 0.07,-0.206 0.128,-0.454 0.229,-0.673 0.049,-0.115 0.097,-0.229 0.145,-0.341 0.047,-0.118 0.109,-0.219 0.168,-0.321 0.06,-0.103 0.118,-0.203 0.174,-0.298 0.029,-0.049 0.057,-0.096 0.083,-0.142 0.032,-0.04 0.062,-0.08 0.092,-0.117 0.248,-0.313 0.412,-0.521 0.412,-0.521 0,0 -0.259,0.08 -0.65,0.199 -0.051,0.017 -0.103,0.033 -0.159,0.051 -0.049,0.023 -0.101,0.047 -0.157,0.072 -0.109,0.051 -0.225,0.106 -0.347,0.161 -0.121,0.058 -0.25,0.117 -0.366,0.194 -0.121,0.076 -0.244,0.152 -0.367,0.23 -0.028,0.017 -0.054,0.038 -0.082,0.056 -2.13,-7.559 -0.13,-13.572 -0.077,-14.307 0.187,-2.608 -1.376,-6.556 -1.376,-6.556 l 0.15,0.257 c 0.03,0.071 0.088,0.21 0.178,0.424 0.065,0.155 0.146,0.347 0.241,0.572 0.086,0.223 0.185,0.478 0.297,0.764 0.22,0.576 0.48,1.29 0.756,2.115 0.279,0.825 0.578,1.764 0.893,2.795 0.631,2.062 1.326,4.495 2.148,7.086 0.415,1.295 0.867,2.627 1.356,3.969 0.496,1.342 1.04,2.69 1.625,4.02 0.589,1.329 1.238,2.631 1.911,3.892 0.694,1.25 1.4,2.468 2.159,3.599 0.362,0.575 0.767,1.109 1.134,1.649 0.388,0.527 0.773,1.038 1.153,1.532 0.396,0.482 0.767,0.96 1.15,1.404 0.386,0.439 0.751,0.871 1.117,1.271 0.372,0.396 0.727,0.775 1.067,1.136 0.351,0.347 0.684,0.677 0.996,0.988 0.625,0.619 1.207,1.123 1.667,1.555 0.96,0.822 1.508,1.292 1.508,1.292 0,0 -0.531,-0.488 -1.462,-1.342 C 14.521,9.889 13.958,9.367 13.356,8.727 13.055,8.407 12.735,8.068 12.397,7.708 12.073,7.338 11.732,6.948 11.376,6.542 11.025,6.133 10.678,5.689 10.309,5.241 9.943,4.788 9.592,4.299 9.218,3.809 8.857,3.307 8.494,2.787 8.128,2.252 7.781,1.704 7.4,1.163 7.062,0.579 6.351,-0.563 5.694,-1.792 5.051,-3.047 4.431,-4.315 3.836,-5.62 3.3,-6.951 2.77,-8.283 2.278,-9.63 1.836,-10.972 c -0.439,-1.342 -0.838,-2.674 -1.205,-3.97 -0.725,-2.596 -1.335,-5.045 -1.898,-7.144 -0.129,-0.48 -0.255,-0.94 -0.379,-1.383 6.285,3.181 10.23,7.881 12.778,12.685 -0.133,-0.044 -0.268,-0.089 -0.399,-0.132 -0.202,-0.054 -0.402,-0.107 -0.595,-0.157 -0.194,-0.039 -0.381,-0.078 -0.559,-0.114 -0.177,-0.037 -0.348,-0.052 -0.502,-0.075 -0.31,-0.05 -0.572,-0.058 -0.752,-0.074 -0.18,-0.012 -0.283,-0.02 -0.283,-0.02 0,0 0.099,0.032 0.27,0.088 0.172,0.058 0.418,0.127 0.702,0.248 0.143,0.06 0.298,0.112 0.456,0.188 0.157,0.075 0.324,0.153 0.495,0.234 0.166,0.091 0.337,0.185 0.511,0.28 0.166,0.105 0.334,0.212 0.503,0.318 0.161,0.117 0.328,0.223 0.477,0.346 0.144,0.114 0.285,0.224 0.415,0.341 2.516,5.323 3.439,10.595 4.042,13.9 -0.021,0.01 -0.039,0.019 -0.06,0.027 -0.068,0.027 -0.14,0.055 -0.211,0.084 -0.073,0.031 -0.149,0.049 -0.224,0.074 -0.153,0.052 -0.31,0.094 -0.46,0.122 -0.075,0.016 -0.148,0.031 -0.218,0.046 -0.07,0.018 -0.136,0.02 -0.198,0.029 -0.251,0.029 -0.418,0.048 -0.418,0.048 0,0 0.158,0.06 0.397,0.15 0.061,0.021 0.127,0.053 0.199,0.069 0.071,0.021 0.146,0.041 0.225,0.062 0.159,0.048 0.331,0.085 0.506,0.114 0.088,0.014 0.176,0.036 0.265,0.042 0.09,0.008 0.176,0.018 0.261,0.026 0.035,0.004 0.068,0.005 0.103,0.007 0.14,0.744 0.269,1.347 0.405,1.778 0.123,0.385 0.254,0.756 0.39,1.115 -0.063,0.032 -0.126,0.061 -0.193,0.084 -0.127,0.054 -0.259,0.103 -0.386,0.135 -0.127,0.036 -0.248,0.075 -0.353,0.088 -0.215,0.037 -0.358,0.061 -0.358,0.061 0,0 0.143,0.037 0.356,0.088 0.109,0.033 0.236,0.047 0.377,0.066 0.14,0.023 0.292,0.033 0.446,0.036 0.111,0.006 0.22,0.002 0.328,-0.004 2.147,5.244 5.466,7.411 5.466,7.411 C 10.66,11.585 3.834,5.712 0,0" />
        </g>
        <g
           transform="translate(108.8755,346.5444)"
           id="g3777">
          <path
             inkscape:connector-curvature="0"
             id="path3779"
             style="fill:#e8c052;fill-opacity:1;fill-rule:nonzero;stroke:none"
             d="m 0,0 c -0.997,1.415 -2.091,1.84 -3.905,1.84 h -7.042 -7.04 c -1.815,0 -2.91,-0.425 -3.906,-1.84 -1.191,-1.691 -3.138,-2.161 -3.138,-2.161 h 14.084 14.083 c 0,0 -1.946,0.47 -3.136,2.161" />
        </g>
        <g
           transform="translate(105.73,349.8188)"
           id="g3781">
          <path
             inkscape:connector-curvature="0"
             id="path3783"
             style="fill:#e8c052;fill-opacity:1;fill-rule:nonzero;stroke:none"
             d="m 0,0 c 0,-0.41 -0.366,-0.74 -0.82,-0.74 h -13.964 c -0.451,0 -0.82,0.33 -0.82,0.74 0,0.408 0.369,0.739 0.82,0.739 H -0.82 C -0.366,0.739 0,0.408 0,0" />
        </g>
        <g
           transform="translate(65.5239,408.5654)"
           id="g3785">
          <path
             inkscape:connector-curvature="0"
             id="path3787"
             style="fill:#e8c052;fill-opacity:1;fill-rule:nonzero;stroke:none"
             d="m 0,0 v -43.827 c 0,-8.918 4.693,-18.976 12.875,-27.597 7.569,-7.974 15.554,-12.146 19.529,-12.146 3.976,0 11.962,4.172 19.53,12.146 8.182,8.621 12.875,18.679 12.875,27.597 V 0 c -0.235,-0.005 -0.47,-0.008 -0.704,-0.008 -5.169,0 -9.575,1.209 -14.241,2.488 -5.146,1.413 -10.468,2.873 -17.46,2.873 -6.99,0 -12.313,-1.46 -17.46,-2.873 C 10.279,1.201 5.872,-0.008 0.704,-0.008 0.47,-0.008 0.235,-0.005 0,0 m 32.404,-87.539 c -11.362,0 -36.372,21.134 -36.372,43.712 V 4.26 L -1.81,4.071 C -0.976,3.998 -0.13,3.96 0.704,3.96 c 4.633,0 8.79,1.141 13.19,2.347 5.15,1.413 10.985,3.013 18.51,3.013 7.525,0 13.361,-1.6 18.511,-3.013 4.399,-1.207 8.556,-2.347 13.19,-2.347 0.834,0 1.68,0.038 2.515,0.111 l 2.156,0.189 v -48.087 c 0,-22.578 -25.01,-43.712 -36.372,-43.712" />
        </g>
        <g
           transform="translate(70.1528,404.4082)"
           id="g3789">
          <path
             inkscape:connector-curvature="0"
             id="path3791"
             style="fill:#e8c052;fill-opacity:1;fill-rule:nonzero;stroke:none"
             d="m 0,0 v -39.089 c 0,-10.94 6.881,-20.143 10.983,-24.657 6.464,-7.111 13.34,-10.832 16.792,-10.832 3.453,0 10.329,3.721 16.793,10.832 4.101,4.514 10.982,13.717 10.982,24.657 V 0 c -0.384,-0.017 -0.771,-0.026 -1.154,-0.026 -4.27,0 -7.938,1.051 -11.821,2.163 -4.355,1.247 -8.86,2.537 -14.8,2.537 -5.94,0 -10.443,-1.29 -14.799,-2.537 C 9.093,1.025 5.425,-0.026 1.156,-0.026 0.772,-0.026 0.386,-0.017 0,0 m 27.775,-76.782 c -4.663,0 -12.24,4.751 -18.424,11.554 -4.315,4.748 -11.556,14.457 -11.556,26.139 V 2.387 l 1.204,-0.11 C -0.286,2.212 0.44,2.179 1.155,2.179 c 3.961,0 7.484,1.009 11.214,2.077 4.293,1.23 9.157,2.623 15.406,2.623 6.25,0 11.115,-1.393 15.408,-2.623 3.728,-1.068 7.252,-2.077 11.213,-2.077 0.715,0 1.44,0.033 2.156,0.098 l 1.203,0.11 v -41.476 c 0,-11.682 -7.24,-21.391 -11.556,-26.139 -6.183,-6.803 -13.759,-11.554 -18.424,-11.554" />
        </g>
        <g
           transform="translate(120.395,431.0898)"
           id="g3793">
          <path
             inkscape:connector-curvature="0"
             id="path3795"
             style="fill:#e8c052;fill-opacity:1;fill-rule:nonzero;stroke:none"
             d="m 0,0 c -0.291,-1.788 -1.382,-1.94 -1.382,-1.94 -1.808,4.478 -5.824,3.772 -5.824,3.772 3.715,-2.592 2.511,-7.425 2.511,-7.425 -6.528,3.888 -13.203,3.417 -13.203,3.417 0.988,4.125 4.567,4.95 4.567,4.95 -3.144,2.948 -6.424,1.061 -6.424,1.061 0,0 1.94,2.082 1.403,4.519 -0.605,2.759 -3.278,2.947 -4.115,6.563 -0.837,-3.616 -3.509,-3.804 -4.115,-6.563 -0.537,-2.437 1.404,-4.519 1.404,-4.519 0,0 -3.28,1.887 -6.425,-1.061 0,0 3.579,-0.825 4.568,-4.95 0,0 -6.676,0.471 -13.203,-3.417 0,0 -1.205,4.833 2.511,7.425 0,0 -4.018,0.706 -5.823,-3.772 0,0 -1.093,0.152 -1.383,1.94 -0.66,4.069 -4.341,1.674 -7.453,3.835 l 9.637,-14.263 h 20.282 20.282 L 7.454,3.835 C 4.342,1.674 0.66,4.069 0,0" />
        </g>
      </g>
    </g>
  </g>
</svg>
