<?xml version="1.0" encoding="UTF-8" standalone="no"?>
<!-- Created with Inkscape (http://www.inkscape.org/) -->

<svg
   xmlns:dc="http://purl.org/dc/elements/1.1/"
   xmlns:cc="http://creativecommons.org/ns#"
   xmlns:rdf="http://www.w3.org/1999/02/22-rdf-syntax-ns#"
   xmlns:svg="http://www.w3.org/2000/svg"
   xmlns="http://www.w3.org/2000/svg"
   xmlns:sodipodi="http://sodipodi.sourceforge.net/DTD/sodipodi-0.dtd"
   xmlns:inkscape="http://www.inkscape.org/namespaces/inkscape"
   width="210mm"
   height="297mm"
   viewBox="0 0 210 297"
   version="1.1"
   id="svg6133"
   inkscape:version="0.92.3 (2405546, 2018-03-11)"
   sodipodi:docname="card_mercimg.svg">
  <defs
     id="defs6127" />
  <sodipodi:namedview
     id="base"
     pagecolor="#ffffff"
     bordercolor="#666666"
     borderopacity="1.0"
     inkscape:pageopacity="0.0"
     inkscape:pageshadow="2"
     inkscape:zoom="0.35"
     inkscape:cx="400"
     inkscape:cy="560"
     inkscape:document-units="mm"
     inkscape:current-layer="layer1"
     showgrid="false"
     inkscape:window-width="1920"
     inkscape:window-height="1016"
     inkscape:window-x="0"
     inkscape:window-y="27"
     inkscape:window-maximized="1" />
  <metadata
     id="metadata6130">
    <rdf:RDF>
      <cc:Work
         rdf:about="">
        <dc:format>image/svg+xml</dc:format>
        <dc:type
           rdf:resource="http://purl.org/dc/dcmitype/StillImage" />
        <dc:title></dc:title>
      </cc:Work>
    </rdf:RDF>
  </metadata>
  <g
     inkscape:label="Layer 1"
     inkscape:groupmode="layer"
     id="layer1">
    <g
       transform="matrix(1.3823435,0,0,-1.3823435,-955.77052,663.65944)"
       id="g6024">
      <g
         id="g4245"
         transform="translate(821.45348,393.6113)">
        <path
           d="m 0,0 c -0.595,-4.539 -1.711,-9.121 -1.975,-13.635 -0.136,-2.327 0.015,-4.736 0.615,-7.028 0.996,5.358 1.477,10.749 1.5,16.198 0.041,-5.473 -0.37,-10.901 -1.296,-16.298 1.408,1.525 2.112,3.543 2.437,5.513 C 2.087,-10.385 1.014,-4.881 0,0"
           style="fill:#e8c052;fill-opacity:1;fill-rule:nonzero;stroke:none"
           id="path4247"
           inkscape:connector-curvature="0" />
      </g>
      <g
         id="g4249"
         transform="translate(828.18198,375.6371)">
        <path
           d="m 0,0 c -2.223,-0.093 -4.956,-0.692 -6.499,-2.364 -1.033,-1.117 -1.569,-2.713 -1.896,-4.194 2.202,1.745 4.348,3.556 6.595,5.244 C -4.015,-3.102 -6.136,-5 -8.314,-6.826 -7.286,-7.363 -6.017,-7.368 -5.035,-6.738 -2.789,-5.301 -1.233,-2.322 0,0"
           style="fill:#e8c052;fill-opacity:1;fill-rule:nonzero;stroke:none"
           id="path4251"
           inkscape:connector-curvature="0" />
      </g>
      <g
         id="g4253"
         transform="translate(826.97058,367.8935)">
        <path
           d="m 0,0 c -2.342,-0.107 -5.196,-0.637 -6.975,-2.221 -1.14,-1.016 -1.856,-2.522 -2.334,-3.968 2.465,1.599 4.867,3.293 7.324,4.903 -2.432,-1.705 -4.812,-3.485 -7.26,-5.164 1.058,-0.572 2.368,-0.606 3.43,-0.037 C -3.367,-5.178 -1.499,-2.293 0,0"
           style="fill:#e8c052;fill-opacity:1;fill-rule:nonzero;stroke:none"
           id="path4255"
           inkscape:connector-curvature="0" />
      </g>
      <g
         id="g4257"
         transform="translate(825.02378,360.3422)">
        <path
           d="m 0,0 c -2.453,-0.068 -5.413,-0.465 -7.424,-1.922 -1.239,-0.9 -2.131,-2.299 -2.761,-3.694 2.714,1.4 5.358,2.926 8.028,4.409 -2.651,-1.577 -5.28,-3.183 -7.985,-4.664 1.163,-0.664 2.435,-0.64 3.581,-0.218 C -4.019,-5.152 -1.747,-2.219 0,0"
           style="fill:#e8c052;fill-opacity:1;fill-rule:nonzero;stroke:none"
           id="path4259"
           inkscape:connector-curvature="0" />
      </g>
      <g
         id="g4261"
         transform="translate(822.37528,353.0712)">
        <path
           d="m 0,0 c -2.567,0.011 -5.621,-0.209 -7.863,-1.501 -1.335,-0.769 -2.393,-2.046 -3.182,-3.373 2.952,1.162 5.834,2.473 8.72,3.788 -2.871,-1.405 -5.744,-2.796 -8.695,-4.035 1.184,-0.724 2.508,-0.778 3.735,-0.441 C -4.588,-4.822 -2.004,-2.107 0,0"
           style="fill:#e8c052;fill-opacity:1;fill-rule:nonzero;stroke:none"
           id="path4263"
           inkscape:connector-curvature="0" />
      </g>
      <g
         id="g4265"
         transform="translate(819.05158,346.1659)">
        <path
           d="m 0,0 c -2.687,0.129 -5.828,0.113 -8.301,-0.98 -1.427,-0.632 -2.651,-1.77 -3.596,-3.016 3.181,0.896 6.301,1.958 9.413,3.068 -3.105,-1.197 -6.221,-2.339 -9.405,-3.307 1.137,-0.743 2.582,-0.994 3.9,-0.689 C -5.039,-4.24 -2.257,-1.962 0,0"
           style="fill:#e8c052;fill-opacity:1;fill-rule:nonzero;stroke:none"
           id="path4267"
           inkscape:connector-curvature="0" />
      </g>
      <g
         id="g4269"
         transform="translate(815.08378,339.7123)">
        <path
           d="m 0,0 c -2.816,0.274 -6.049,0.481 -8.752,-0.392 -1.518,-0.489 -2.899,-1.475 -4.011,-2.623 3.407,0.615 6.769,1.4 10.117,2.273 -3.345,-0.958 -6.708,-1.819 -10.121,-2.503 1.231,-0.845 2.684,-1.089 4.083,-0.945 C -5.689,-3.886 -2.525,-1.782 0,0"
           style="fill:#e8c052;fill-opacity:1;fill-rule:nonzero;stroke:none"
           id="path4271"
           inkscape:connector-curvature="0" />
      </g>
      <g
         id="g4273"
         transform="translate(810.50378,333.7973)">
        <path
           d="m 0,0 c -2.965,0.44 -6.295,0.87 -9.232,0.235 -1.607,-0.347 -3.14,-1.168 -4.423,-2.203 3.638,0.33 7.247,0.822 10.847,1.432 -3.602,-0.691 -7.217,-1.256 -10.864,-1.651 1.283,-0.902 2.807,-1.23 4.291,-1.196 C -6.242,-3.312 -2.808,-1.571 0,0"
           style="fill:#e8c052;fill-opacity:1;fill-rule:nonzero;stroke:none"
           id="path4275"
           inkscape:connector-curvature="0" />
      </g>
      <g
         id="g4277"
         transform="translate(805.34118,328.5072)">
        <path
           d="m 0,0 c -3.133,0.62 -6.654,1.314 -9.753,0.871 -1.683,-0.24 -3.35,-0.836 -4.837,-1.761 3.881,0.054 7.749,0.249 11.614,0.576 -3.874,-0.404 -7.748,-0.667 -11.642,-0.779 1.347,-0.945 2.961,-1.354 4.534,-1.424 C -6.775,-2.663 -3.105,-1.321 0,0"
           style="fill:#e8c052;fill-opacity:1;fill-rule:nonzero;stroke:none"
           id="path4279"
           inkscape:connector-curvature="0" />
      </g>
      <g
         id="g4281"
         transform="translate(799.62438,323.9272)">
        <path
           d="m 0,0 c -3.324,0.798 -6.905,1.628 -10.325,1.49 -1.798,-0.073 -3.617,-0.546 -5.256,-1.302 4.143,-0.206 8.283,-0.306 12.429,-0.273 -4.157,-0.103 -8.31,-0.065 -12.465,0.088 1.445,-0.97 3.145,-1.439 4.818,-1.612 C -7.311,-1.969 -3.414,-1.036 0,0"
           style="fill:#e8c052;fill-opacity:1;fill-rule:nonzero;stroke:none"
           id="path4283"
           inkscape:connector-curvature="0" />
      </g>
      <g
         id="g4285"
         transform="translate(793.38408,320.1425)">
        <path
           d="m 0,0 c -3.539,0.971 -7.341,2.014 -10.962,2.06 -1.898,0.025 -3.838,-0.235 -5.681,-0.828 4.429,-0.445 8.86,-0.821 13.304,-1.087 -4.456,0.199 -8.903,0.525 -13.347,0.926 1.564,-0.971 3.375,-1.486 5.15,-1.747 C -7.83,-1.224 -3.732,-0.71 0,0"
           style="fill:#e8c052;fill-opacity:1;fill-rule:nonzero;stroke:none"
           id="path4287"
           inkscape:connector-curvature="0" />
      </g>
      <g
         id="g4289"
         transform="translate(813.98468,382.935)">
        <path
           d="m 0,0 c 2.015,-2.403 4.274,-5.277 5.029,-8.272 0.416,-1.647 0.429,-3.414 0.01,-5.12 -1.103,3.525 -2.329,6.996 -3.747,10.407 1.367,-3.46 2.534,-6.976 3.571,-10.549 -1.273,0.595 -2.064,1.768 -2.589,2.97 C 0.908,-7.432 0.636,-3.467 0,0"
           style="fill:#e8c052;fill-opacity:1;fill-rule:nonzero;stroke:none"
           id="path4291"
           inkscape:connector-curvature="0" />
      </g>
      <g
         id="g4293"
         transform="translate(812.78838,375.0536)">
        <path
           d="M 0,0 C 1.87,-2.288 3.908,-5.045 4.531,-7.966 4.875,-9.578 4.671,-11.319 4.114,-12.872 3.26,-9.477 2.278,-6.133 1.084,-2.84 2.219,-6.178 3.135,-9.563 3.917,-13 2.671,-12.39 1.928,-11.254 1.464,-10.057 0.319,-7.099 0.37,-3.283 0,0"
           style="fill:#e8c052;fill-opacity:1;fill-rule:nonzero;stroke:none"
           id="path4295"
           inkscape:connector-curvature="0" />
      </g>
      <g
         id="g4297"
         transform="translate(810.89048,367.6552)">
        <path
           d="m 0,0 c 1.726,-2.213 3.619,-4.935 4.029,-7.746 0.228,-1.577 -0.142,-3.246 -0.837,-4.68 -0.616,3.279 -1.356,6.514 -2.318,9.71 0.894,-3.237 1.566,-6.508 2.102,-9.822 -1.216,0.635 -1.928,1.75 -2.324,2.954 C -0.272,-6.758 0.096,-3.105 0,0"
           style="fill:#e8c052;fill-opacity:1;fill-rule:nonzero;stroke:none"
           id="path4299"
           inkscape:connector-curvature="0" />
      </g>
      <g
         id="g4301"
         transform="translate(808.29138,360.7568)">
        <path
           d="m 0,0 c 1.579,-2.157 3.326,-4.882 3.53,-7.587 0.115,-1.545 -0.421,-3.132 -1.248,-4.436 -0.391,3.168 -0.896,6.304 -1.619,9.414 0.65,-3.147 1.08,-6.31 1.383,-9.508 -1.188,0.667 -1.879,1.774 -2.199,2.987 C -0.876,-6.425 -0.177,-2.932 0,0"
           style="fill:#e8c052;fill-opacity:1;fill-rule:nonzero;stroke:none"
           id="path4303"
           inkscape:connector-curvature="0" />
      </g>
      <g
         id="g4305"
         transform="translate(804.98618,354.3696)">
        <path
           d="M 0,0 C 1.433,-2.121 3.048,-4.857 3.052,-7.458 3.054,-8.966 2.355,-10.462 1.405,-11.628 1.227,-8.571 0.944,-5.536 0.453,-2.511 0.863,-5.565 1.061,-8.623 1.15,-11.7 -0.017,-11 -0.695,-9.903 -0.948,-8.679 -1.479,-6.087 -0.446,-2.75 0,0"
           style="fill:#e8c052;fill-opacity:1;fill-rule:nonzero;stroke:none"
           id="path4307"
           inkscape:connector-curvature="0" />
      </g>
      <g
         id="g4309"
         transform="translate(800.97348,348.5072)">
        <path
           d="m 0,0 c 1.292,-2.087 2.787,-4.836 2.606,-7.328 -0.108,-1.474 -0.971,-2.86 -2.032,-3.879 0.009,2.939 -0.064,5.864 -0.323,8.791 0.17,-2.949 0.155,-5.889 0.047,-8.842 -1.067,0.673 -1.902,1.781 -2.015,3.048 C -1.957,-5.567 -0.709,-2.552 0,0"
           style="fill:#e8c052;fill-opacity:1;fill-rule:nonzero;stroke:none"
           id="path4311"
           inkscape:connector-curvature="0" />
      </g>
      <g
         id="g4313"
         transform="translate(796.25128,343.1835)">
        <path
           d="m 0,0 c 1.158,-2.038 2.555,-4.802 2.204,-7.171 -0.213,-1.437 -1.25,-2.688 -2.4,-3.553 0.179,2.804 0.294,5.601 0.253,8.411 -0.053,-2.824 -0.267,-5.63 -0.55,-8.438 -1.046,0.676 -1.925,1.772 -1.968,3.044 C -2.546,-5.182 -0.955,-2.33 0,0"
           style="fill:#e8c052;fill-opacity:1;fill-rule:nonzero;stroke:none"
           id="path4315"
           inkscape:connector-curvature="0" />
      </g>
      <g
         id="g4317"
         transform="translate(790.81478,338.412)">
        <path
           d="m 0,0 c 1.037,-1.967 2.365,-4.733 1.864,-6.956 -0.317,-1.393 -1.531,-2.489 -2.75,-3.191 0.323,2.644 0.605,5.288 0.767,7.948 -0.261,-2.666 -0.651,-5.311 -1.088,-7.954 -1.024,0.666 -1.985,1.736 -1.958,3.002 0.051,2.4 2,5.062 3.165,7.151"
           style="fill:#e8c052;fill-opacity:1;fill-rule:nonzero;stroke:none"
           id="path4319"
           inkscape:connector-curvature="0" />
      </g>
      <g
         id="g4321"
         transform="translate(784.66388,334.2065)">
        <path
           d="m 0,0 c 0.927,-1.858 2.229,-4.613 1.592,-6.656 -0.419,-1.34 -1.813,-2.249 -3.075,-2.785 0.441,2.452 0.862,4.907 1.2,7.377 -0.444,-2.47 -0.979,-4.918 -1.547,-7.362 -1.001,0.626 -2.081,1.655 -1.995,2.899 C -3.668,-4.27 -1.334,-1.816 0,0"
           style="fill:#e8c052;fill-opacity:1;fill-rule:nonzero;stroke:none"
           id="path4323"
           inkscape:connector-curvature="0" />
      </g>
      <g
         id="g4325"
         transform="translate(777.79528,330.5805)">
        <path
           d="m 0,0 c 0.835,-1.703 2.15,-4.418 1.407,-6.241 -0.519,-1.269 -2.1,-1.955 -3.38,-2.332 0.534,2.218 1.065,4.438 1.546,6.669 -0.595,-2.225 -1.246,-4.431 -1.92,-6.635 -0.963,0.56 -2.218,1.529 -2.082,2.722 C -4.191,-3.73 -1.45,-1.524 0,0"
           style="fill:#e8c052;fill-opacity:1;fill-rule:nonzero;stroke:none"
           id="path4327"
           inkscape:connector-curvature="0" />
      </g>
      <g
         id="g4329"
         transform="translate(714.49498,393.6113)">
        <path
           d="m 0,0 c 0.595,-4.539 1.711,-9.121 1.977,-13.635 0.135,-2.327 -0.016,-4.736 -0.615,-7.028 -0.999,5.358 -1.477,10.749 -1.503,16.198 -0.04,-5.473 0.37,-10.901 1.297,-16.298 -1.409,1.525 -2.113,3.543 -2.44,5.513 C -2.087,-10.385 -1.012,-4.881 0,0"
           style="fill:#e8c052;fill-opacity:1;fill-rule:nonzero;stroke:none"
           id="path4331"
           inkscape:connector-curvature="0" />
      </g>
      <g
         id="g4333"
         transform="translate(707.76598,375.6371)">
        <path
           d="M 0,0 C 2.223,-0.093 4.958,-0.692 6.501,-2.364 7.532,-3.481 8.066,-5.077 8.395,-6.558 6.193,-4.813 4.047,-3.002 1.802,-1.314 4.015,-3.102 6.136,-5 8.314,-6.826 7.286,-7.363 6.017,-7.368 5.033,-6.738 2.789,-5.301 1.233,-2.322 0,0"
           style="fill:#e8c052;fill-opacity:1;fill-rule:nonzero;stroke:none"
           id="path4335"
           inkscape:connector-curvature="0" />
      </g>
      <g
         id="g4337"
         transform="translate(708.97978,367.8935)">
        <path
           d="M 0,0 C 2.342,-0.107 5.194,-0.637 6.973,-2.221 8.11,-3.237 8.828,-4.743 9.304,-6.189 6.841,-4.59 4.439,-2.896 1.983,-1.286 4.416,-2.991 6.794,-4.771 9.245,-6.45 8.185,-7.022 6.877,-7.056 5.812,-6.487 3.364,-5.178 1.496,-2.293 0,0"
           style="fill:#e8c052;fill-opacity:1;fill-rule:nonzero;stroke:none"
           id="path4339"
           inkscape:connector-curvature="0" />
      </g>
      <g
         id="g4341"
         transform="translate(710.92418,360.3422)">
        <path
           d="m 0,0 c 2.453,-0.068 5.416,-0.465 7.424,-1.922 1.239,-0.9 2.132,-2.299 2.763,-3.694 -2.716,1.4 -5.36,2.926 -8.027,4.409 C 4.808,-2.784 7.437,-4.39 10.142,-5.871 8.979,-6.535 7.707,-6.511 6.563,-6.089 4.021,-5.152 1.747,-2.219 0,0"
           style="fill:#e8c052;fill-opacity:1;fill-rule:nonzero;stroke:none"
           id="path4343"
           inkscape:connector-curvature="0" />
      </g>
      <g
         id="g4345"
         transform="translate(713.57458,353.0712)">
        <path
           d="m 0,0 c 2.565,0.011 5.619,-0.209 7.861,-1.501 1.337,-0.769 2.396,-2.046 3.182,-3.373 -2.95,1.162 -5.834,2.473 -8.72,3.788 2.871,-1.405 5.745,-2.796 8.693,-4.035 C 9.834,-5.845 8.51,-5.899 7.283,-5.562 4.586,-4.822 2.002,-2.107 0,0"
           style="fill:#e8c052;fill-opacity:1;fill-rule:nonzero;stroke:none"
           id="path4347"
           inkscape:connector-curvature="0" />
      </g>
      <g
         id="g4349"
         transform="translate(716.89878,346.1659)">
        <path
           d="m 0,0 c 2.684,0.129 5.827,0.113 8.299,-0.98 1.429,-0.632 2.65,-1.77 3.596,-3.016 C 8.716,-3.1 5.596,-2.038 2.484,-0.928 5.587,-2.125 8.703,-3.267 11.887,-4.235 10.75,-4.978 9.305,-5.229 7.989,-4.924 5.037,-4.24 2.257,-1.962 0,0"
           style="fill:#e8c052;fill-opacity:1;fill-rule:nonzero;stroke:none"
           id="path4351"
           inkscape:connector-curvature="0" />
      </g>
      <g
         id="g4353"
         transform="translate(720.86458,339.7123)">
        <path
           d="M 0,0 C 2.818,0.274 6.048,0.481 8.754,-0.392 10.27,-0.881 11.653,-1.867 12.762,-3.015 9.355,-2.4 5.995,-1.615 2.644,-0.742 5.991,-1.7 9.354,-2.561 12.767,-3.245 11.536,-4.09 10.082,-4.334 8.686,-4.19 5.687,-3.886 2.527,-1.782 0,0"
           style="fill:#e8c052;fill-opacity:1;fill-rule:nonzero;stroke:none"
           id="path4355"
           inkscape:connector-curvature="0" />
      </g>
      <g
         id="g4357"
         transform="translate(725.44468,333.7973)">
        <path
           d="m 0,0 c 2.964,0.44 6.295,0.87 9.232,0.235 1.609,-0.347 3.142,-1.168 4.423,-2.203 -3.638,0.33 -7.247,0.822 -10.848,1.432 C 6.41,-1.227 10.025,-1.792 13.672,-2.187 12.388,-3.089 10.867,-3.417 9.381,-3.383 6.242,-3.312 2.807,-1.571 0,0"
           style="fill:#e8c052;fill-opacity:1;fill-rule:nonzero;stroke:none"
           id="path4359"
           inkscape:connector-curvature="0" />
      </g>
      <g
         id="g4361"
         transform="translate(730.60868,328.5072)">
        <path
           d="m 0,0 c 3.131,0.62 6.652,1.314 9.751,0.871 1.686,-0.24 3.348,-0.836 4.839,-1.761 -3.881,0.054 -7.748,0.249 -11.614,0.576 3.87,-0.404 7.749,-0.667 11.64,-0.779 C 13.271,-2.038 11.658,-2.447 10.083,-2.517 6.773,-2.663 3.103,-1.321 0,0"
           style="fill:#e8c052;fill-opacity:1;fill-rule:nonzero;stroke:none"
           id="path4363"
           inkscape:connector-curvature="0" />
      </g>
      <g
         id="g4365"
         transform="translate(736.32408,323.9272)">
        <path
           d="M 0,0 C 3.324,0.798 6.905,1.628 10.325,1.49 12.121,1.417 13.942,0.944 15.581,0.188 11.438,-0.018 7.298,-0.118 3.154,-0.085 7.311,-0.188 11.461,-0.15 15.617,0.003 14.171,-0.967 12.471,-1.436 10.801,-1.609 7.311,-1.969 3.413,-1.036 0,0"
           style="fill:#e8c052;fill-opacity:1;fill-rule:nonzero;stroke:none"
           id="path4367"
           inkscape:connector-curvature="0" />
      </g>
      <g
         id="g4369"
         transform="translate(742.56378,320.1425)">
        <path
           d="M 0,0 C 3.539,0.971 7.343,2.014 10.962,2.06 12.86,2.085 14.801,1.825 16.643,1.232 12.214,0.787 7.783,0.411 3.339,0.145 7.796,0.344 12.242,0.67 16.686,1.071 15.122,0.1 13.311,-0.415 11.538,-0.676 7.832,-1.224 3.732,-0.71 0,0"
           style="fill:#e8c052;fill-opacity:1;fill-rule:nonzero;stroke:none"
           id="path4371"
           inkscape:connector-curvature="0" />
      </g>
      <g
         id="g4373"
         transform="translate(721.96518,382.935)">
        <path
           d="m 0,0 c -2.017,-2.403 -4.278,-5.277 -5.033,-8.272 -0.414,-1.647 -0.427,-3.414 -0.008,-5.12 1.105,3.525 2.327,6.996 3.749,10.407 -1.369,-3.46 -2.536,-6.976 -3.573,-10.549 1.276,0.595 2.066,1.768 2.589,2.97 C -0.91,-7.432 -0.638,-3.467 0,0"
           style="fill:#e8c052;fill-opacity:1;fill-rule:nonzero;stroke:none"
           id="path4375"
           inkscape:connector-curvature="0" />
      </g>
      <g
         id="g4377"
         transform="translate(723.15948,375.0536)">
        <path
           d="m 0,0 c -1.87,-2.288 -3.908,-5.045 -4.531,-7.966 -0.344,-1.612 -0.138,-3.353 0.419,-4.906 0.854,3.395 1.836,6.739 3.029,10.032 -1.133,-3.338 -2.054,-6.723 -2.834,-10.16 1.248,0.61 1.99,1.746 2.453,2.943 C -0.318,-7.099 -0.368,-3.283 0,0"
           style="fill:#e8c052;fill-opacity:1;fill-rule:nonzero;stroke:none"
           id="path4379"
           inkscape:connector-curvature="0" />
      </g>
      <g
         id="g4381"
         transform="translate(725.05748,367.6552)">
        <path
           d="m 0,0 c -1.724,-2.213 -3.617,-4.935 -4.027,-7.746 -0.232,-1.577 0.142,-3.246 0.837,-4.68 0.616,3.279 1.354,6.514 2.316,9.71 -0.894,-3.237 -1.564,-6.508 -2.101,-9.822 1.218,0.635 1.93,1.75 2.323,2.954 C 0.274,-6.758 -0.096,-3.105 0,0"
           style="fill:#e8c052;fill-opacity:1;fill-rule:nonzero;stroke:none"
           id="path4383"
           inkscape:connector-curvature="0" />
      </g>
      <g
         id="g4385"
         transform="translate(727.65708,360.7568)">
        <path
           d="m 0,0 c -1.577,-2.157 -3.326,-4.882 -3.53,-7.587 -0.115,-1.545 0.421,-3.132 1.247,-4.436 0.391,3.168 0.897,6.304 1.622,9.414 -0.651,-3.147 -1.082,-6.31 -1.386,-9.508 1.188,0.667 1.879,1.774 2.202,2.987 C 0.875,-6.425 0.178,-2.932 0,0"
           style="fill:#e8c052;fill-opacity:1;fill-rule:nonzero;stroke:none"
           id="path4387"
           inkscape:connector-curvature="0" />
      </g>
      <g
         id="g4389"
         transform="translate(730.96178,354.3696)">
        <path
           d="m 0,0 c -1.435,-2.121 -3.048,-4.857 -3.052,-7.458 -0.002,-1.508 0.697,-3.004 1.647,-4.17 0.181,3.057 0.461,6.092 0.952,9.117 -0.41,-3.054 -0.608,-6.112 -0.697,-9.189 1.167,0.7 1.847,1.797 2.098,3.021 C 1.481,-6.087 0.448,-2.75 0,0"
           style="fill:#e8c052;fill-opacity:1;fill-rule:nonzero;stroke:none"
           id="path4391"
           inkscape:connector-curvature="0" />
      </g>
      <g
         id="g4393"
         transform="translate(734.97638,348.5072)">
        <path
           d="m 0,0 c -1.292,-2.087 -2.788,-4.836 -2.608,-7.328 0.108,-1.474 0.974,-2.86 2.032,-3.879 -0.008,2.939 0.064,5.864 0.323,8.791 -0.172,-2.949 -0.155,-5.889 -0.049,-8.842 1.069,0.673 1.905,1.781 2.019,3.048 C 1.958,-5.567 0.708,-2.552 0,0"
           style="fill:#e8c052;fill-opacity:1;fill-rule:nonzero;stroke:none"
           id="path4395"
           inkscape:connector-curvature="0" />
      </g>
      <g
         id="g4397"
         transform="translate(739.69908,343.1835)">
        <path
           d="m 0,0 c -1.161,-2.038 -2.557,-4.802 -2.206,-7.171 0.212,-1.437 1.249,-2.688 2.399,-3.553 -0.176,2.804 -0.293,5.601 -0.255,8.411 0.055,-2.824 0.27,-5.63 0.553,-8.438 1.046,0.676 1.926,1.772 1.97,3.044 C 2.544,-5.182 0.952,-2.33 0,0"
           style="fill:#e8c052;fill-opacity:1;fill-rule:nonzero;stroke:none"
           id="path4399"
           inkscape:connector-curvature="0" />
      </g>
      <g
         id="g4401"
         transform="translate(745.13558,338.412)">
        <path
           d="m 0,0 c -1.037,-1.967 -2.37,-4.733 -1.864,-6.956 0.315,-1.393 1.528,-2.489 2.746,-3.191 -0.321,2.644 -0.604,5.288 -0.765,7.948 0.261,-2.666 0.65,-5.311 1.086,-7.954 1.028,0.666 1.987,1.736 1.962,3.002 C 3.113,-4.751 1.162,-2.089 0,0"
           style="fill:#e8c052;fill-opacity:1;fill-rule:nonzero;stroke:none"
           id="path4403"
           inkscape:connector-curvature="0" />
      </g>
      <g
         id="g4405"
         transform="translate(751.28598,334.2065)">
        <path
           d="m 0,0 c -0.929,-1.858 -2.231,-4.613 -1.594,-6.656 0.417,-1.34 1.813,-2.249 3.075,-2.785 -0.439,2.452 -0.862,4.907 -1.198,7.377 0.442,-2.47 0.977,-4.918 1.543,-7.362 1.003,0.626 2.083,1.655 1.998,2.899 C 3.664,-4.27 1.333,-1.816 0,0"
           style="fill:#e8c052;fill-opacity:1;fill-rule:nonzero;stroke:none"
           id="path4407"
           inkscape:connector-curvature="0" />
      </g>
      <g
         id="g4409"
         transform="translate(758.15318,330.5805)">
        <path
           d="m 0,0 c -0.833,-1.703 -2.153,-4.418 -1.405,-6.241 0.518,-1.269 2.1,-1.955 3.379,-2.332 -0.536,2.218 -1.067,4.438 -1.547,6.669 0.593,-2.225 1.247,-4.431 1.917,-6.635 0.967,0.56 2.223,1.529 2.087,2.722 C 4.191,-3.73 1.449,-1.524 0,0"
           style="fill:#e8c052;fill-opacity:1;fill-rule:nonzero;stroke:none"
           id="path4411"
           inkscape:connector-curvature="0" />
      </g>
      <g
         id="g4413"
         transform="translate(767.97398,323.6039)">
        <path
           d="M 0,0 1.062,-2.151 3.435,-2.496 1.717,-4.169 2.123,-6.534 0,-5.418 l -2.123,-1.116 0.406,2.365 -1.718,1.673 2.374,0.345 z"
           style="fill:#e8c052;fill-opacity:1;fill-rule:nonzero;stroke:none"
           id="path4415"
           inkscape:connector-curvature="0" />
      </g>
      <g
         id="g4417"
         transform="translate(787.23758,372.5517)">
        <path
           d="M 0,0 V 22.896 L 6.982,-0.296 C 5.645,-0.141 3.479,-0.005 0,0 M -7.362,-0.296 -0.38,22.896 V 0 c -3.479,-0.005 -5.641,-0.141 -6.982,-0.296 m -23.805,0 c -1.337,0.155 -3.501,0.291 -6.98,0.296 v 22.896 z m -14.342,0 6.979,23.192 V 0 c -3.476,-0.005 -5.64,-0.141 -6.979,-0.296 M 7.396,-0.348 0,24.218 v 1.051 c 0.16,0.026 0.311,0.076 0.447,0.154 0.004,0.004 0.006,0.005 0.012,0.007 0.079,0.049 0.149,0.102 0.215,0.169 0.011,0.007 0.023,0.018 0.034,0.027 0.042,0.044 0.083,0.092 0.121,0.143 0,0 0.002,0 0.002,0.002 0.164,0.218 0.259,0.491 0.259,0.784 0,0.724 -0.586,1.311 -1.311,1.311 -0.727,0 -1.313,-0.587 -1.313,-1.311 0,-0.607 0.412,-1.112 0.973,-1.263 -0.357,-0.141 -0.763,-0.271 -1.22,-0.363 -0.469,-0.093 -0.988,-0.141 -1.532,-0.129 -0.542,0.016 -1.116,0.105 -1.686,0.25 -0.576,0.144 -1.153,0.349 -1.734,0.596 -0.582,0.245 -1.166,0.525 -1.774,0.793 -0.604,0.27 -1.235,0.529 -1.884,0.733 -0.654,0.203 -1.315,0.348 -1.986,0.419 l -0.256,0.026 -0.225,0.018 c -0.179,0.01 -0.336,0.012 -0.501,0.016 -0.328,0 -0.649,-0.021 -0.959,-0.055 -0.623,-0.07 -1.199,-0.202 -1.717,-0.366 -1.044,-0.325 -1.845,-0.763 -2.385,-1.101 -0.027,-0.016 -0.053,-0.033 -0.08,-0.05 h -0.064 c -0.005,0.009 -0.34,0.912 -0.043,1.376 0.297,0.465 1.505,1.145 1.293,2.564 -0.181,1.2 -1.229,2.795 -1.95,5.379 -0.72,-2.584 -1.77,-4.179 -1.948,-5.379 -0.211,-1.419 0.994,-2.099 1.294,-2.564 0.293,-0.464 -0.04,-1.367 -0.045,-1.376 h -0.066 c -0.025,0.017 -0.051,0.034 -0.078,0.05 -0.542,0.338 -1.344,0.776 -2.385,1.101 -0.516,0.164 -1.094,0.296 -1.717,0.366 -0.311,0.034 -0.631,0.055 -0.958,0.055 -0.166,-0.004 -0.324,-0.006 -0.502,-0.016 l -0.226,-0.018 -0.255,-0.026 c -0.671,-0.071 -1.334,-0.216 -1.987,-0.419 -0.65,-0.204 -1.279,-0.463 -1.885,-0.733 -0.605,-0.268 -1.19,-0.548 -1.772,-0.793 -0.581,-0.247 -1.161,-0.452 -1.735,-0.596 -0.572,-0.145 -1.143,-0.234 -1.687,-0.25 -0.544,-0.012 -1.061,0.036 -1.531,0.129 -0.457,0.092 -0.862,0.222 -1.219,0.363 0.559,0.151 0.973,0.656 0.973,1.263 0,0.724 -0.587,1.311 -1.313,1.311 -0.725,0 -1.312,-0.587 -1.312,-1.311 0,-0.293 0.096,-0.566 0.258,-0.784 0,-0.002 0.004,-0.002 0.004,-0.002 0.038,-0.051 0.078,-0.099 0.121,-0.143 0.01,-0.009 0.023,-0.02 0.034,-0.027 0.066,-0.067 0.136,-0.12 0.215,-0.169 0.006,-0.002 0.008,-0.003 0.012,-0.007 0.136,-0.078 0.287,-0.128 0.444,-0.154 v -1.051 l -7.393,-24.566 c -1.448,-0.196 -1.703,-0.403 -1.703,-0.403 1.018,0.031 1.084,-0.438 1.637,-1.176 0.811,-1.08 1.555,-1.441 3.966,-1.441 h 3.685 3.687 c 2.408,0 3.156,0.361 3.966,1.441 0.55,0.738 0.619,1.207 1.634,1.176 0,0 -0.25,0.207 -1.702,0.403 l -7.394,24.566 v 0.949 c 0.372,-0.198 0.812,-0.393 1.322,-0.546 0.48,-0.145 1.018,-0.25 1.598,-0.294 0.585,-0.035 1.195,-0.017 1.826,0.07 0.627,0.085 1.269,0.235 1.898,0.421 0.633,0.186 1.256,0.399 1.872,0.592 0.614,0.196 1.224,0.366 1.819,0.481 0.596,0.111 1.186,0.171 1.741,0.166 l 0.202,-0.004 0.229,-0.007 c 0.121,-0.007 0.264,-0.021 0.39,-0.034 0.263,-0.027 0.514,-0.076 0.758,-0.132 0.489,-0.111 0.935,-0.269 1.333,-0.447 0.803,-0.355 1.407,-0.783 1.8,-1.095 0.197,-0.157 0.344,-0.288 0.433,-0.374 0.034,-0.034 0.06,-0.059 0.079,-0.08 0,-0.001 0,-0.001 -0.002,-0.004 -0.006,-0.038 -0.017,-0.075 -0.026,-0.113 -0.012,-0.05 -0.019,-0.1 -0.027,-0.152 -0.007,-0.036 -0.013,-0.071 -0.017,-0.107 -0.009,-0.058 -0.015,-0.118 -0.021,-0.178 -0.002,-0.032 -0.007,-0.06 -0.009,-0.09 -0.007,-0.094 -0.01,-0.185 -0.01,-0.281 0,-0.12 0.008,-0.237 0.017,-0.353 0.004,-0.034 0.008,-0.067 0.01,-0.101 0.013,-0.088 0.026,-0.173 0.04,-0.259 0.005,-0.028 0.011,-0.059 0.017,-0.086 0.021,-0.108 0.047,-0.214 0.079,-0.315 0.006,-0.017 0.013,-0.033 0.019,-0.05 0.028,-0.086 0.06,-0.17 0.094,-0.252 0.008,-0.022 0.019,-0.046 0.029,-0.07 0.041,-0.085 0.081,-0.166 0.126,-0.244 0.004,-0.007 0.006,-0.015 0.012,-0.02 0.043,-0.074 0.09,-0.146 0.139,-0.211 0.006,-0.009 0.015,-0.017 0.021,-0.025 0.032,-0.039 0.064,-0.073 0.098,-0.11 0.034,-0.039 0.068,-0.079 0.104,-0.113 0.049,-0.046 0.1,-0.084 0.153,-0.123 0.019,-0.015 0.038,-0.034 0.057,-0.048 -0.153,-0.018 -0.299,-0.043 -0.433,-0.075 -0.555,-0.119 -0.918,-0.335 -0.918,-0.579 0,-0.244 0.363,-0.461 0.918,-0.582 V 0.053 c -0.417,-0.112 -0.687,-0.286 -0.687,-0.482 0,-0.197 0.27,-0.372 0.687,-0.483 v -0.656 c -0.638,-0.168 -1.069,-0.482 -1.069,-0.844 0,-0.361 0.431,-0.674 1.069,-0.844 v -0.466 c -0.29,-0.064 -0.468,-0.155 -0.468,-0.257 0,-0.102 0.178,-0.193 0.468,-0.259 v -4.481 c -0.474,-0.122 -0.785,-0.321 -0.785,-0.548 0,-0.226 0.311,-0.425 0.785,-0.547 v -0.615 c -0.29,-0.065 -0.468,-0.157 -0.468,-0.259 0,-0.102 0.178,-0.193 0.468,-0.258 v -0.667 c -0.355,-0.269 -0.582,-0.67 -0.582,-1.117 0,-0.448 0.227,-0.85 0.582,-1.118 v -0.004 c -0.013,-0.031 -0.345,-0.851 -1.163,-1.53 -0.023,-0.019 -0.043,-0.037 -0.064,-0.056 -0.006,-0.004 -0.012,-0.01 -0.019,-0.015 h 0.002 c -0.074,-0.071 -0.11,-0.145 -0.11,-0.223 0,-0.198 0.247,-0.376 0.648,-0.51 -0.102,-0.99 -4.837,-1.847 -5.641,-2.73 -0.203,-0.159 -0.314,-0.326 -0.314,-0.499 0,-0.975 3.455,-1.764 7.721,-1.764 0.019,0 0.036,10e-4 0.053,10e-4 0.017,0 0.035,-10e-4 0.054,-10e-4 4.265,0 7.721,0.789 7.721,1.764 0,0.173 -0.111,0.34 -0.315,0.499 -0.803,0.883 -5.538,1.74 -5.638,2.73 h -0.002 c 0.402,0.134 0.65,0.312 0.65,0.51 0,0.078 -0.039,0.152 -0.111,0.223 -0.006,0.005 -0.01,0.011 -0.019,0.015 -0.019,0.019 -0.04,0.037 -0.066,0.056 -0.818,0.679 -1.149,1.499 -1.16,1.53 v 0.004 c 0.355,0.268 0.58,0.67 0.58,1.118 0,0.447 -0.225,0.848 -0.58,1.117 v 0.667 c 0.287,0.065 0.465,0.156 0.465,0.258 0,0.102 -0.178,0.194 -0.465,0.259 v 0.615 c 0.474,0.122 0.782,0.321 0.782,0.547 0,0.227 -0.308,0.426 -0.782,0.548 v 4.481 c 0.287,0.066 0.465,0.157 0.465,0.259 0,0.102 -0.178,0.193 -0.465,0.257 v 0.466 c 0.635,0.17 1.069,0.483 1.069,0.844 0,0.362 -0.434,0.676 -1.069,0.844 v 0.656 c 0.417,0.111 0.687,0.286 0.687,0.483 0,0.196 -0.27,0.37 -0.687,0.482 v 19.29 c 0.555,0.121 0.921,0.338 0.921,0.582 0,0.244 -0.366,0.46 -0.921,0.579 -0.134,0.032 -0.281,0.057 -0.433,0.075 0.019,0.014 0.038,0.033 0.057,0.048 0.053,0.039 0.104,0.077 0.153,0.123 0.036,0.034 0.068,0.074 0.104,0.113 0.032,0.037 0.066,0.071 0.096,0.11 0.008,0.008 0.017,0.016 0.023,0.025 0.049,0.065 0.093,0.137 0.138,0.211 0.005,0.005 0.009,0.013 0.013,0.02 0.042,0.078 0.085,0.159 0.123,0.244 0.011,0.024 0.022,0.048 0.032,0.07 0.034,0.082 0.066,0.166 0.094,0.252 0.006,0.017 0.012,0.033 0.019,0.05 0.029,0.101 0.057,0.207 0.078,0.315 0.007,0.027 0.011,0.058 0.017,0.086 0.015,0.086 0.028,0.171 0.041,0.259 0.002,0.034 0.006,0.067 0.008,0.101 0.013,0.116 0.02,0.233 0.02,0.353 0,0.096 -0.005,0.187 -0.011,0.281 0,0.03 -0.006,0.058 -0.011,0.09 -0.004,0.06 -0.011,0.12 -0.019,0.178 -0.004,0.036 -0.011,0.071 -0.017,0.107 -0.008,0.052 -0.017,0.102 -0.028,0.152 -0.008,0.038 -0.016,0.075 -0.027,0.113 0,0.003 0,0.003 -0.003,0.004 0.022,0.021 0.05,0.046 0.081,0.08 0.09,0.086 0.234,0.217 0.432,0.374 0.395,0.312 1.001,0.74 1.802,1.095 0.397,0.178 0.846,0.336 1.333,0.447 0.242,0.056 0.495,0.105 0.756,0.132 0.128,0.013 0.27,0.027 0.393,0.034 l 0.228,0.007 0.202,0.004 c 0.555,0.005 1.145,-0.055 1.738,-0.166 0.597,-0.115 1.207,-0.285 1.822,-0.481 0.616,-0.193 1.239,-0.406 1.872,-0.592 0.629,-0.186 1.269,-0.336 1.898,-0.421 0.631,-0.087 1.243,-0.105 1.826,-0.07 0.578,0.044 1.117,0.149 1.598,0.294 0.508,0.153 0.948,0.348 1.322,0.546 V 24.218 L -7.776,-0.348 c -1.448,-0.196 -1.701,-0.403 -1.701,-0.403 1.017,0.031 1.082,-0.438 1.635,-1.176 0.81,-1.08 1.558,-1.441 3.966,-1.441 h 3.687 3.683 c 2.412,0 3.158,0.361 3.968,1.441 0.553,0.738 0.621,1.207 1.637,1.176 0,0 -0.251,0.207 -1.703,0.403"
           style="fill:#e8c052;fill-opacity:1;fill-rule:nonzero;stroke:none"
           id="path4419"
           inkscape:connector-curvature="0" />
      </g>
      <g
         id="g4421"
         transform="translate(800.47448,375.8349)">
        <path
           d="M 0,0 C 0,-19.303 -24.773,-35.83 -32.5,-35.83 -40.226,-35.83 -65,-19.303 -65,0 v 39.281 c 10.375,-1.376 21.291,-2.072 32.5,-2.072 9.808,0 20.726,0.717 32.5,2.131 z M -69.566,44.296 V 0.094 c 0,-20.788 25.485,-40.247 37.066,-40.247 11.578,0 37.067,19.459 37.067,40.247 v 44.205 c -3.364,-0.322 -27.982,-2.64 -37.067,-2.64 -10.531,0 -33.799,2.307 -37.066,2.637"
           style="fill:#e8c052;fill-opacity:1;fill-rule:nonzero;stroke:none"
           id="path4423"
           inkscape:connector-curvature="0" />
      </g>
      <g
         id="g4425"
         transform="translate(805.73418,375.9291)">
        <path
           d="m 0,0 c 0,-21.148 -25.965,-40.942 -37.76,-40.942 -11.796,0 -37.763,19.794 -37.763,40.942 v 44.97 l 0.385,-0.039 c 0.259,-0.026 26.131,-2.672 37.378,-2.672 9.678,0 37.106,2.646 37.38,2.672 L 0,44.968 Z m -37.76,43.795 c -11.932,0 -39.18,2.802 -39.18,2.802 V -0.094 c 0,-21.958 26.94,-42.511 39.18,-42.511 12.239,0 39.18,20.553 39.18,42.511 v 46.691 c 0,0 -28.909,-2.802 -39.18,-2.802"
           style="fill:#e8c052;fill-opacity:1;fill-rule:nonzero;stroke:none"
           id="path4427"
           inkscape:connector-curvature="0" />
      </g>
    </g>
  </g>
</svg>
